<?xml version="1.0" standalone="no"?>
<!DOCTYPE svg PUBLIC "-//W3C//DTD SVG 20010904//EN"
 "http://www.w3.org/TR/2001/REC-SVG-20010904/DTD/svg10.dtd">
<svg version="1.0" xmlns="http://www.w3.org/2000/svg"
 width="826.000000pt" height="842.000000pt" viewBox="0 0 826.000000 842.000000"
 preserveAspectRatio="xMidYMid meet">

<g transform="translate(0.000000,842.000000) scale(0.100000,-0.100000)"
fill="#000000" stroke="none">
<path d="M2990 8413 c0 -11 59 -93 67 -93 3 0 1 6 -5 13 -5 6 -21 30 -36 51
-14 21 -26 35 -26 29z"/>
<path d="M3459 8402 c6 -12 16 -24 22 -28 8 -4 8 -1 0 14 -6 12 -16 24 -22 28
-8 4 -8 1 0 -14z"/>
<path d="M4170 8413 c0 -6 8 -17 18 -24 16 -13 16 -13 2 6 -8 11 -16 22 -17
24 -2 2 -3 0 -3 -6z"/>
<path d="M5200 8410 c8 -5 20 -10 25 -10 6 0 3 5 -5 10 -8 5 -19 10 -25 10 -5
0 -3 -5 5 -10z"/>
<path d="M5289 8403 c-13 -16 -12 -17 4 -4 9 7 17 15 17 17 0 8 -8 3 -21 -13z"/>
<path d="M7937 8389 c10 -17 24 -36 32 -42 8 -7 2 7 -14 31 -32 49 -45 57 -18
11z"/>
<path d="M4958 8353 c21 -32 42 -65 45 -73 4 -10 6 -11 6 -2 1 13 -75 132 -85
132 -2 0 13 -26 34 -57z"/>
<path d="M7606 8375 c-27 -18 -54 -39 -60 -46 -6 -6 17 7 52 30 34 23 62 44
62 46 0 7 -1 7 -54 -30z"/>
<path d="M3404 8380 c-5 -5 -65 -29 -133 -55 -68 -25 -133 -50 -144 -57 -18
-9 -24 -6 -45 18 -25 29 -25 29 -8 2 9 -15 16 -29 16 -31 0 -2 -36 -20 -80
-41 -70 -34 -82 -37 -98 -25 -15 12 -16 12 -4 -2 10 -14 7 -21 -25 -45 -21
-16 -86 -72 -144 -126 -85 -78 -109 -94 -120 -85 -11 10 -11 9 0 -6 12 -15 9
-22 -26 -60 -22 -24 -49 -57 -59 -73 -10 -16 -19 -31 -21 -33 -1 -2 -10 2 -19
10 -16 13 -16 12 -4 -7 12 -19 10 -28 -10 -70 -41 -89 -67 -178 -79 -279 -17
-139 -23 -161 -45 -157 -15 3 -17 -2 -10 -45 3 -26 13 -60 20 -75 8 -15 14
-42 15 -60 0 -47 41 -152 60 -156 14 -3 14 4 3 60 -8 35 -14 68 -14 75 0 14
97 -33 118 -57 8 -8 11 -9 7 -2 -7 13 6 14 45 3 l25 -7 -23 -13 c-12 -6 -28
-9 -34 -5 -7 5 -8 3 -3 -5 4 -8 -5 -25 -25 -46 -18 -18 -30 -41 -29 -51 2 -11
0 -25 -4 -31 -12 -19 -47 -16 -47 4 0 14 -4 13 -24 -7 -14 -12 -32 -20 -40
-17 -9 4 -13 1 -10 -6 2 -7 -20 -27 -51 -45 -50 -30 -125 -116 -112 -129 3 -2
-17 -33 -45 -66 -27 -34 -61 -82 -76 -107 -14 -25 -45 -67 -67 -95 -23 -27
-56 -76 -74 -108 -70 -124 -195 -269 -302 -350 -13 -10 -17 -15 -9 -12 24 11
-157 -164 -245 -236 -111 -92 -215 -159 -245 -159 -42 0 -99 20 -109 38 -6 9
-11 12 -11 5 0 -7 -13 -5 -37 7 -50 24 -56 15 -14 -20 18 -16 30 -33 27 -39
-4 -7 -1 -9 8 -5 8 3 27 -1 43 -9 29 -16 27 -18 -22 -31 -11 -3 1 -3 28 -1 26
3 67 2 92 -2 43 -5 45 -7 30 -23 -26 -29 0 -32 40 -4 28 19 59 28 119 34 98
12 160 32 300 98 10 5 2 -100 -19 -233 -8 -49 -15 -122 -16 -162 -1 -39 -6
-78 -10 -85 -7 -10 -9 -10 -9 2 0 8 -30 -19 -67 -60 -149 -165 -232 -233 -361
-294 -66 -32 -78 -46 -37 -46 14 0 25 -5 25 -10 0 -6 -8 -10 -17 -8 -42 7 -22
-44 49 -130 16 -18 28 -37 28 -43 0 -6 12 -26 26 -45 28 -36 27 -68 -2 -57
-13 5 -16 3 -11 -10 3 -9 2 -17 -4 -17 -6 0 -6 -7 1 -19 15 -29 12 -51 -6 -51
-23 0 45 -62 72 -65 12 -2 36 -10 53 -20 l33 -17 -23 -25 c-41 -43 -192 -160
-239 -184 -40 -21 -93 -69 -85 -77 1 -2 25 10 52 26 56 33 98 48 163 57 25 3
72 17 104 30 33 13 61 23 63 21 2 -1 -28 -41 -67 -87 -121 -144 -171 -254
-206 -454 -17 -95 -13 -172 11 -264 7 -28 9 -49 5 -46 -5 3 -3 -7 5 -22 8 -15
15 -34 15 -41 0 -30 86 -187 120 -221 42 -41 111 -86 104 -66 -7 17 43 8 76
-15 40 -27 57 -33 28 -10 -37 29 -36 43 3 35 l31 -7 -27 45 c-52 90 -57 309
-10 557 34 183 44 198 44 69 1 -115 22 -296 45 -387 8 -31 24 -113 36 -182 48
-288 122 -472 233 -579 62 -60 91 -75 44 -22 -87 96 -139 206 -195 406 -57
203 -121 653 -129 900 -2 99 -6 182 -8 184 -11 11 -25 -16 -25 -48 0 -36 -33
-181 -45 -202 -13 -20 -55 -178 -69 -259 -27 -152 -1 -368 51 -430 32 -39 23
-38 -42 5 -55 37 -120 114 -148 177 -22 47 -64 207 -77 296 -8 51 -8 87 0 134
16 90 59 227 83 268 27 44 129 171 184 229 49 51 49 64 1 30 l-33 -24 22 30
c35 50 59 67 82 60 12 -3 21 -15 21 -26 0 -10 5 -19 10 -19 6 0 10 7 10 15 0
8 6 13 12 11 7 -3 25 -7 40 -10 37 -8 46 -42 47 -197 2 -160 27 -345 76 -551
21 -91 96 -362 101 -367 9 -9 3 18 -35 164 -72 275 -121 592 -120 770 0 60 0
60 17 35 71 -103 170 -225 215 -266 40 -35 61 -64 77 -104 60 -154 227 -435
277 -466 15 -10 29 -19 31 -20 2 -1 -13 -35 -34 -75 -65 -130 -152 -409 -179
-577 -8 -54 -18 -113 -21 -132 -9 -55 -44 -85 -44 -37 0 20 -4 18 -35 -18 -19
-22 -33 -48 -31 -57 4 -17 -62 -78 -84 -78 -6 0 -9 -4 -6 -9 3 -4 -6 -19 -21
-32 -29 -27 -156 -185 -195 -242 l-26 -38 -22 28 c-12 15 -18 21 -14 13 4 -8
13 -22 21 -31 12 -15 3 -38 -77 -195 -132 -261 -151 -351 -100 -486 25 -67
110 -156 172 -180 23 -9 22 -15 -3 -113 -13 -50 -23 -126 -26 -205 -4 -95 -9
-129 -21 -143 -14 -15 -14 -18 -2 -15 36 8 -17 -188 -104 -384 -25 -57 -25
-58 -5 -58 23 0 46 47 101 202 l33 93 2 -50 c1 -27 8 -94 14 -147 l11 -98 35
0 c29 0 34 3 29 17 -30 78 -33 330 -6 490 58 337 116 488 287 745 116 174 116
174 110 57 -3 -52 -5 -147 -5 -211 -1 -158 -28 -353 -62 -463 -16 -49 -43
-142 -60 -205 -37 -136 -73 -258 -105 -357 l-24 -73 44 0 c43 0 44 1 55 40 6
23 30 109 54 193 45 158 64 239 47 202 -5 -11 -12 -29 -15 -39 -4 -10 -9 -16
-12 -13 -3 3 7 55 22 116 23 94 29 109 42 102 14 -8 20 21 49 247 17 142 36
275 41 297 l10 40 2 -45 3 -45 8 55 c5 30 11 192 14 360 6 296 7 309 36 424
17 65 28 121 25 124 -3 3 -6 0 -6 -7 0 -15 -41 -113 -46 -108 -5 5 31 140 44
162 6 11 41 49 77 85 37 36 70 74 75 86 19 49 355 274 408 274 5 0 37 -16 71
-37 55 -33 61 -39 63 -72 4 -73 -4 -150 -28 -259 -3 -16 -1 -21 7 -17 25 16
-4 -38 -39 -70 -66 -61 17 -41 104 25 l52 39 5 -32 c13 -76 19 -127 14 -127
-3 0 -17 4 -31 10 -46 17 -355 24 -508 10 -79 -6 -150 -15 -158 -18 -18 -7
-20 -7 313 -23 141 -7 257 -17 257 -21 0 -5 -5 -19 -11 -31 -10 -22 -10 -22
10 1 11 12 21 27 23 34 3 7 12 6 30 -6 16 -10 35 -15 50 -11 34 9 48 -12 53
-75 2 -39 20 -85 73 -193 39 -78 83 -164 98 -190 23 -39 25 -50 14 -57 -8 -5
-19 -2 -29 7 -13 13 -34 15 -131 10 -289 -15 -450 -119 -450 -291 0 -26 7 -44
24 -61 27 -26 24 -35 -11 -35 -25 0 -29 10 -11 28 9 9 9 12 -3 12 -29 0 -111
93 -146 166 -34 71 -65 214 -76 347 -5 67 -17 89 -17 31 1 -58 27 -251 37
-266 2 -5 2 -8 -1 -8 -9 0 -59 118 -98 235 -34 98 -41 137 -44 212 -2 51 1
104 6 119 8 19 7 25 -2 22 -7 -3 -21 -27 -31 -54 -39 -110 -10 -262 99 -506
23 -54 39 -100 35 -102 -4 -3 -16 -27 -25 -53 -25 -68 -59 -132 -67 -127 -4 2
-6 -15 -4 -38 1 -24 -2 -54 -7 -68 -5 -14 -12 -58 -14 -97 -3 -70 -30 -259
-38 -272 -11 -18 -27 -268 -29 -444 -2 -194 -2 -197 19 -197 20 0 22 8 32 127
13 152 13 153 22 153 4 0 13 18 20 40 15 45 56 91 102 113 28 14 36 14 53 3
33 -22 40 -59 28 -145 -10 -65 -22 -96 -67 -178 -31 -55 -56 -103 -56 -107 0
-4 10 -6 22 -4 15 2 33 26 63 84 24 45 50 93 60 107 23 36 37 151 24 201 -12
45 -52 86 -84 86 -41 0 -92 -29 -130 -72 l-38 -43 7 64 c3 35 6 72 6 83 0 10
8 22 17 25 72 28 162 162 183 273 14 74 -2 182 -35 232 -15 22 -28 38 -30 36
-2 -2 5 -29 16 -61 30 -88 27 -188 -7 -273 -30 -78 -73 -145 -107 -169 -37
-26 -34 9 3 52 18 20 45 64 61 97 25 52 29 74 29 142 0 45 -6 99 -14 120 -12
37 -11 44 18 121 l31 82 35 -30 c19 -17 56 -41 82 -53 34 -16 44 -26 36 -34
-15 -15 -1 -32 28 -32 13 0 24 -3 24 -6 0 -3 -15 -24 -34 -47 -46 -58 -80
-126 -117 -231 -25 -73 -30 -103 -28 -165 1 -50 -2 -76 -9 -79 -7 -2 -12 -7
-12 -12 0 -9 33 -8 40 2 3 3 54 25 114 48 60 22 126 50 147 61 22 11 39 17 39
14 0 -2 -7 -23 -16 -45 -9 -23 -13 -44 -9 -48 4 -4 10 -2 12 4 2 6 11 20 19
30 13 16 13 15 -1 -13 -19 -40 -19 -47 1 -39 9 3 32 -4 51 -15 25 -16 57 -24
109 -27 76 -5 86 -12 57 -44 -9 -10 -11 -18 -6 -18 14 0 29 20 38 50 4 14 17
33 29 43 17 14 17 16 3 11 -15 -5 -11 8 19 69 21 42 41 74 44 72 21 -13 60 43
84 118 3 10 10 15 16 12 18 -11 10 -54 -20 -101 -58 -92 -106 -294 -115 -483
-3 -58 -7 -127 -10 -153 -3 -36 -1 -48 10 -48 16 0 21 43 30 222 3 64 8 123
11 131 3 8 31 26 62 40 43 20 51 26 32 26 -14 1 -38 -6 -54 -14 -16 -9 -30
-14 -32 -12 -8 8 47 207 72 262 l27 60 13 -40 c7 -22 13 -53 13 -69 1 -15 9
-56 18 -90 19 -69 22 -239 6 -297 -6 -20 -8 -77 -5 -128 l5 -91 32 0 32 0 -4
48 c-6 66 19 126 51 120 19 -4 22 -1 18 15 -3 14 -1 18 6 13 7 -4 12 -32 12
-64 0 -45 -6 -65 -26 -95 l-26 -38 29 3 c24 3 31 10 45 53 10 28 18 41 19 30
2 -25 2 -25 -6 -58 -7 -25 -5 -27 27 -27 l35 0 -5 80 c-6 113 44 317 99 398
40 60 133 144 262 236 l77 56 0 -34 c0 -18 -7 -73 -16 -122 -9 -49 -16 -101
-17 -116 0 -15 -3 -25 -6 -23 -3 2 -4 -26 -3 -61 4 -61 5 -64 40 -86 55 -34
151 -30 267 12 50 18 102 41 117 51 14 11 33 17 41 13 15 -5 77 -77 77 -89 0
-3 10 -16 21 -28 l21 -22 -6 37 c-6 30 -4 38 8 38 31 0 62 102 87 287 13 104
7 435 -11 517 -5 27 -9 51 -7 53 2 1 60 -72 129 -165 70 -92 148 -191 175
-221 26 -30 47 -58 46 -62 -2 -4 23 -13 54 -20 52 -12 57 -11 72 7 9 11 36 28
61 38 56 22 104 57 183 133 166 160 255 288 282 408 18 78 23 321 7 337 -17
17 -15 31 3 24 8 -3 15 -1 15 4 0 6 -3 10 -8 10 -4 0 -21 12 -37 28 -16 15
-32 26 -35 25 -7 -4 -90 29 -90 35 0 2 37 44 83 91 181 191 401 578 437 770
l8 45 -19 -24 c-10 -14 -19 -28 -19 -32 0 -10 -105 -222 -159 -323 -79 -145
-190 -303 -282 -400 l-92 -95 -42 39 c-24 22 -57 47 -74 55 l-31 16 37 48 c20
26 47 70 60 98 13 28 33 60 44 70 54 48 162 240 175 311 6 29 9 32 33 27 14
-4 61 -22 104 -40 43 -19 81 -34 84 -34 14 0 -124 78 -159 91 -21 7 -38 18
-38 24 0 6 9 53 20 104 12 52 24 126 28 165 l7 70 60 19 c113 34 181 6 257
-107 37 -54 38 -58 17 -51 -51 14 80 -89 286 -225 302 -199 354 -243 405 -342
24 -46 38 -83 33 -87 -6 -3 -13 -52 -16 -109 -5 -89 -4 -106 13 -135 21 -36
40 -234 40 -418 0 -71 3 -99 10 -89 8 12 10 11 10 -7 0 -13 4 -23 9 -23 5 0
12 32 16 71 6 60 9 68 20 52 18 -26 25 -75 14 -98 -8 -16 -6 -16 10 4 26 29
26 54 3 152 -10 42 -15 84 -12 95 4 11 -1 40 -11 67 -17 42 -19 77 -19 274 -1
187 -3 230 -17 257 -21 41 -297 321 -393 399 -41 33 -104 79 -140 102 -36 23
-107 77 -159 118 -52 42 -97 74 -101 72 -3 -2 -26 12 -50 32 -57 45 -106 66
-140 59 -45 -9 -94 33 -135 118 -62 124 -59 232 15 477 39 129 53 163 94 223
12 19 40 80 61 135 26 68 41 97 47 89 5 -8 6 8 3 37 l-7 50 28 -45 c120 -196
233 -323 402 -453 34 -27 62 -54 62 -62 0 -8 15 -17 35 -21 l34 -6 -6 -77
c-14 -190 77 -354 248 -445 29 -16 58 -35 62 -43 4 -7 16 -13 25 -13 15 0 325
-170 344 -189 5 -4 11 -35 14 -69 l7 -62 -38 15 c-51 22 -51 15 -1 -19 39 -26
45 -37 65 -105 12 -42 44 -122 71 -177 41 -86 60 -111 117 -164 37 -34 81 -69
97 -77 28 -15 29 -15 22 9 -27 95 -37 140 -43 197 -5 58 -4 64 9 54 8 -7 17
-11 20 -8 11 12 338 -346 338 -370 0 -3 7 -13 15 -21 55 -55 -55 -41 -142 18
-23 15 -45 28 -48 28 -13 0 56 -111 88 -141 23 -21 26 -27 10 -20 -30 15 -42
13 -19 -4 11 -8 15 -19 11 -27 -6 -10 -5 -10 4 -2 17 16 93 -13 118 -45 18
-22 47 -29 82 -20 25 7 62 -124 96 -341 32 -211 27 -463 -10 -495 -6 -5 -22
-44 -34 -85 -13 -41 -35 -97 -48 -125 -27 -52 -122 -206 -149 -240 -15 -20
-15 -20 -30 -1 -8 11 -14 15 -14 10 0 -6 5 -15 12 -22 9 -9 3 -21 -27 -53 -39
-40 -140 -119 -220 -172 -38 -26 -40 -26 -57 -9 -25 25 -111 204 -146 304 -34
96 -67 254 -108 518 -14 96 -35 209 -46 250 -17 67 -126 325 -134 317 -2 -1 8
-39 22 -82 46 -148 98 -418 139 -720 13 -97 56 -259 92 -349 41 -101 105 -228
135 -265 19 -25 19 -25 -9 -47 l-28 -23 43 10 c40 9 46 7 82 -22 22 -18 37
-36 33 -42 -3 -6 -1 -7 6 -3 6 4 18 3 26 -4 8 -6 41 -10 80 -8 l67 3 -23 20
c-18 15 -20 15 -10 3 30 -39 -39 -11 -122 50 l-49 35 69 39 c87 50 150 93 191
132 27 26 34 28 42 16 7 -12 12 -12 21 -3 9 9 9 16 0 27 -11 13 -5 26 33 80
68 95 201 368 227 466 44 163 26 467 -42 725 -45 169 -45 163 -17 174 59 22
143 164 164 276 4 22 14 46 23 53 9 8 11 11 4 8 -8 -5 -10 31 -8 136 2 79 4
162 4 186 1 26 5 41 11 37 6 -3 10 -2 10 4 0 5 -5 13 -11 17 -9 5 -10 46 -6
140 5 127 1 164 -28 289 -7 29 -7 29 9 10 17 -20 17 -20 6 2 -5 12 -14 24 -19
28 -5 3 -22 42 -36 88 -29 87 -148 367 -131 305 3 -10 4 -18 2 -18 -10 0 -44
70 -56 115 -7 28 -31 86 -53 129 -32 66 -38 87 -34 120 8 54 -10 206 -33 278
l-18 59 57 -7 c66 -7 161 9 207 36 20 11 36 15 43 9 7 -6 8 -5 2 2 -5 7 4 29
25 60 63 95 88 226 61 328 -14 54 -37 67 -37 21 0 -20 -4 -29 -11 -24 -7 4 -9
0 -5 -12 10 -31 -71 -108 -129 -124 -36 -10 -52 -11 -66 -2 -15 10 -17 9 -13
-3 8 -21 -88 -20 -146 0 -58 20 -239 129 -290 174 -69 61 -99 83 -242 177 -75
51 -134 94 -131 98 4 3 0 6 -9 6 -8 0 -23 9 -32 19 -10 10 -32 22 -50 25 -47
9 -89 59 -139 166 -51 108 -111 295 -103 316 3 8 2 13 -3 10 -5 -3 -12 6 -15
22 -4 15 -10 36 -13 47 -4 15 3 12 33 -14 21 -19 62 -45 91 -58 30 -14 63 -38
75 -54 17 -22 30 -29 55 -29 21 0 32 4 28 10 -6 10 25 6 67 -9 15 -5 15 -8 -3
-30 -10 -13 -19 -20 -19 -16 0 7 -30 -45 -67 -117 -17 -34 -54 -160 -48 -166
2 -2 25 38 51 89 25 52 48 96 50 98 3 3 39 -29 82 -70 42 -41 97 -93 122 -114
25 -21 48 -47 52 -57 10 -24 38 -12 38 16 0 12 -4 26 -9 32 -5 5 -30 76 -56
158 -36 115 -53 156 -75 176 -17 16 -72 41 -139 64 -86 30 -116 45 -131 66
-26 36 -25 40 8 68 l27 24 -31 -21 c-25 -16 -34 -18 -42 -8 -31 38 -131 220
-125 229 3 6 1 8 -4 5 -24 -15 -35 21 -28 88 7 58 9 64 23 53 15 -12 15 -11 1
9 -13 18 -15 48 -12 150 3 104 0 138 -14 178 -17 46 -23 53 -88 87 -67 36
-187 82 -212 83 -20 0 -26 13 -25 61 1 54 -30 100 -82 122 -17 7 -46 29 -64
50 -24 26 -29 29 -17 10 20 -33 5 -38 -25 -8 -12 12 -25 18 -30 15 -6 -3 -7 1
-4 10 4 9 0 23 -9 33 -8 9 -24 36 -36 59 -25 50 -52 67 -94 59 -28 -6 -36 -1
-85 51 l-53 58 42 -55 c51 -67 99 -165 99 -203 0 -22 9 -32 51 -55 28 -15 67
-38 87 -50 19 -13 45 -26 56 -28 30 -6 66 -35 102 -82 30 -38 31 -39 29 -14
-2 31 -24 76 -32 68 -3 -3 -24 8 -46 24 -23 17 -48 30 -56 30 -9 0 -23 5 -31
11 -23 16 49 0 85 -19 17 -9 37 -17 45 -18 8 -2 23 -12 32 -24 14 -18 16 -39
13 -133 -3 -114 -12 -154 -37 -174 -11 -9 -12 -28 -7 -85 3 -40 5 -77 3 -83
-2 -5 -5 -49 -8 -97 -3 -77 -7 -91 -32 -123 -24 -29 -34 -35 -54 -30 -47 12
-114 69 -138 118 -23 49 -62 77 -106 77 -25 0 -67 -15 -141 -52 -38 -19 -43
-19 -77 -5 -52 22 -70 55 -81 155 -12 114 -27 148 -98 218 -57 57 -59 60 -58
109 1 42 2 45 8 20 6 -26 8 -23 14 26 9 75 26 113 85 185 27 34 56 80 65 103
9 22 22 41 27 41 7 0 8 6 0 19 -13 25 -14 53 -1 33 5 -8 6 7 3 36 -4 49 9 92
29 92 6 0 7 -6 3 -12 -5 -10 -4 -10 6 -1 11 10 18 9 34 -5 18 -16 19 -16 13 2
-6 14 -4 17 9 12 8 -3 18 -6 20 -6 2 0 4 -7 4 -16 0 -9 5 -12 12 -8 7 5 2 15
-17 30 l-28 22 69 46 c38 25 65 46 60 46 -4 0 -38 -21 -74 -46 l-66 -46 -42
20 c-23 12 -69 24 -101 27 -50 6 -65 13 -101 46 -23 22 -42 41 -42 43 0 2 32
24 70 50 39 25 70 49 70 51 0 3 -34 -17 -76 -46 -76 -51 -76 -51 -97 -31 -31
27 -116 84 -130 86 -20 3 -138 75 -183 113 -55 45 -158 84 -305 117 -96 21
-152 27 -315 32 -403 11 -478 11 -529 -3 -27 -7 -120 -16 -205 -20 l-155 -6
25 22 25 23 -32 -21 c-36 -24 -53 -26 -73 -8 -8 6 -11 8 -6 2 12 -15 -195 -35
-213 -21 -11 8 -13 8 -8 -1 5 -8 -2 -15 -20 -19 -39 -9 -99 -40 -158 -80 -40
-27 -64 -36 -116 -40 l-65 -7 -22 34 c-12 19 -22 30 -22 26 0 -4 7 -19 16 -32
l16 -25 -96 0 c-112 0 -143 12 -176 65 -12 19 -24 35 -27 35 -3 0 3 -12 12
-27 17 -27 17 -27 0 -11 -10 9 -19 25 -20 35 -4 32 -17 63 -26 63 -5 0 -6 15
-2 33 9 50 54 191 64 202 5 5 9 15 9 22 0 12 29 80 77 182 25 51 171 256 179
249 9 -9 -13 -103 -24 -100 -9 1 -9 -2 -1 -16 9 -14 6 -36 -10 -97 -22 -81
-76 -205 -89 -205 -4 0 -18 -9 -32 -20 l-25 -21 30 7 c72 16 248 166 322 274
28 40 43 56 39 40 -3 -14 -3 -19 0 -12 5 10 11 9 28 -5 l21 -18 -19 23 c-17
19 -18 26 -6 50 52 110 63 156 66 286 2 85 7 132 14 136 7 5 8 10 3 13 -6 4
-14 2 -19 -3z m-33 -202 c-11 -61 -45 -155 -65 -183 -13 -18 -14 -18 -24 1 -8
14 -3 39 19 104 16 47 29 104 29 128 0 36 -3 42 -20 42 -12 0 -51 -20 -87 -44
-61 -40 -68 -43 -80 -28 -15 21 -1 33 103 86 57 30 77 36 88 27 10 -9 17 -7
27 6 12 14 14 10 17 -35 2 -29 -1 -76 -7 -104z m-75 20 c-11 -66 -26 -82 -23
-23 2 43 10 64 26 65 2 0 1 -19 -3 -42z m-157 -6 c8 -15 3 -25 -25 -53 -19
-18 -32 -39 -30 -45 3 -7 -7 -22 -21 -35 -72 -68 -200 -275 -238 -384 -6 -19
-7 -19 -26 4 -23 28 -25 20 -4 -13 14 -21 12 -31 -22 -134 -23 -70 -40 -109
-47 -105 -6 4 -5 0 1 -9 13 -15 18 -75 13 -149 -2 -40 43 -147 66 -156 8 -3
14 -12 14 -19 0 -26 51 -37 89 -19 31 15 35 15 55 -2 11 -10 15 -11 9 -3 -19
21 -16 29 13 40 18 7 30 7 39 0 8 -7 25 -5 55 5 46 16 74 13 103 -13 14 -12
22 -13 43 -4 13 7 38 12 54 12 31 0 50 18 30 30 -7 4 3 11 27 18 21 6 75 25
121 41 101 38 116 39 77 5 -29 -24 -29 -25 -2 -8 15 9 32 24 37 33 14 26 298
22 405 -6 44 -12 101 -24 128 -28 30 -4 115 -40 236 -101 222 -112 329 -191
541 -404 113 -113 145 -152 196 -240 86 -147 127 -243 175 -413 23 -81 44
-146 46 -144 11 11 -31 209 -65 302 -55 153 -56 158 -24 90 43 -91 79 -205
111 -360 16 -77 30 -128 30 -113 1 44 -47 280 -75 364 -34 105 -65 168 -135
274 -109 167 -217 302 -292 364 l-72 61 44 -53 c24 -29 42 -55 40 -57 -5 -5
-144 127 -144 137 0 3 -4 10 -9 15 -5 5 -6 3 -2 -4 4 -7 5 -13 2 -13 -11 0
-135 104 -131 109 3 2 33 -14 68 -37 48 -33 54 -35 27 -11 -39 34 -116 77
-105 58 5 -7 3 -10 -6 -7 -8 3 -13 11 -11 17 1 7 -2 10 -8 6 -5 -3 -10 -2 -10
3 0 4 -41 30 -91 56 -96 51 -159 99 -159 121 0 8 -12 15 -27 17 -62 7 -24 60
56 77 101 22 324 4 481 -39 41 -11 134 -36 205 -54 157 -42 263 -79 330 -117
70 -39 197 -148 189 -161 -4 -6 -3 -8 3 -5 6 4 30 -16 55 -42 l44 -49 -28 -88
c-15 -48 -28 -93 -28 -99 0 -6 -19 -16 -43 -22 -53 -15 -135 -76 -143 -108
-11 -45 15 -92 89 -161 72 -66 72 -67 50 -81 -13 -9 -23 -20 -23 -25 0 -5 -18
-31 -40 -59 -22 -28 -43 -63 -46 -77 -3 -15 -10 -42 -15 -61 -12 -50 10 -95
67 -131 26 -16 57 -33 68 -36 19 -6 16 -10 -24 -47 -38 -33 -39 -36 -10 -16
19 13 39 29 43 36 11 17 32 17 47 -1 6 -8 18 -12 26 -9 10 4 14 -2 14 -21 0
-14 5 -26 10 -26 6 0 10 9 10 20 0 12 7 20 16 20 14 0 16 -8 10 -47 -23 -166
-28 -265 -23 -433 3 -102 9 -196 12 -210 3 -14 -16 17 -43 69 -27 52 -51 91
-54 85 -3 -5 -3 -3 -1 5 5 20 -157 305 -194 341 -6 6 94 -186 114 -218 14 -22
13 -23 -6 -17 -12 4 -21 2 -21 -4 0 -6 -12 -11 -27 -11 -42 0 -126 -43 -147
-75 -14 -22 -20 -25 -27 -14 -10 16 -12 7 -9 -33 2 -35 -4 -35 -82 2 -52 25
-76 30 -135 30 -70 0 -73 -1 -88 -30 -8 -16 -15 -38 -15 -50 0 -17 -6 -20 -47
-19 -82 1 -87 6 -52 63 17 27 34 71 39 99 l8 50 -36 -44 c-49 -59 -111 -118
-145 -136 -24 -12 -46 -12 -145 -3 -112 11 -196 7 -207 -9 -9 -16 -146 -2
-194 20 -45 20 -45 21 -21 31 26 10 253 12 343 4 46 -5 48 -5 17 4 -60 17
-301 24 -357 11 -60 -15 -71 -11 -204 80 -89 61 -111 72 -88 42 13 -17 13 -17
-13 0 -32 20 -45 22 -30 4 7 -8 6 -29 -5 -67 -8 -30 -16 -91 -17 -135 -1 -44
-5 -85 -9 -92 -4 -6 -2 -13 4 -15 6 -2 19 -28 29 -57 17 -50 17 -57 2 -88 -13
-27 -21 -33 -48 -33 -60 0 -146 39 -194 89 -70 72 -109 154 -121 258 -24 198
-8 323 82 671 21 84 39 159 38 165 -1 25 -82 -235 -114 -368 -60 -251 -68
-305 -69 -510 -1 -215 12 -303 84 -570 22 -81 39 -150 37 -151 -9 -10 -186
218 -241 310 -40 67 -43 67 -21 6 31 -87 150 -263 254 -376 73 -79 132 -154
132 -169 1 -5 5 -18 10 -27 13 -24 -3 -23 -127 2 -99 21 -205 65 -299 125 -54
34 -219 174 -247 209 -10 12 -18 15 -18 8 0 -7 35 -49 78 -95 66 -68 85 -96
114 -167 56 -133 56 -142 -3 -66 -30 38 -70 88 -89 111 -19 23 -61 77 -94 118
-32 42 -72 85 -90 95 -39 23 -149 206 -182 302 -12 37 -32 114 -44 170 l-22
102 43 45 c24 24 65 58 91 75 27 17 46 33 44 36 -9 8 -112 -32 -144 -56 -18
-14 -35 -22 -38 -20 -10 11 -19 169 -18 328 1 151 4 175 33 284 18 65 45 148
61 185 39 86 5 45 -44 -54 -92 -185 -123 -411 -92 -663 l16 -133 -24 -32 c-30
-41 -56 -92 -56 -112 0 -28 25 -15 55 30 27 40 31 42 37 24 8 -21 -2 -423 -10
-414 -3 2 -18 -7 -34 -20 -25 -21 -40 -25 -100 -25 -82 0 -85 -9 -15 -57 l47
-31 -25 -31 c-20 -23 -37 -31 -73 -36 -89 -12 -103 -23 -30 -24 l67 -1 -13
-37 c-9 -26 -20 -39 -35 -41 -18 -3 -20 -6 -10 -18 9 -11 8 -14 -5 -14 -9 0
-16 -4 -16 -10 0 -5 2 -10 4 -10 34 0 115 -26 155 -49 52 -31 85 -39 95 -22 7
10 -51 57 -88 71 -14 5 -26 14 -26 19 0 46 73 132 142 167 57 29 58 29 58 4 0
-13 10 -24 25 -30 54 -21 135 -80 135 -99 0 -29 -27 -33 -76 -12 -24 11 -44
18 -44 17 0 -2 7 -20 15 -40 12 -29 20 -36 44 -36 47 0 91 -20 91 -41 0 -20
-7 -22 -53 -19 -26 1 -28 0 -18 -19 15 -28 103 -133 156 -185 68 -68 106 -93
155 -99 25 -3 53 -9 62 -12 10 -4 17 1 21 14 7 27 -19 149 -43 206 -11 25 -15
45 -10 45 6 0 10 -6 10 -13 0 -7 6 -22 14 -32 12 -16 16 -17 30 -6 14 12 16
10 16 -14 0 -45 25 -23 28 26 2 31 -5 62 -22 100 -22 51 -23 55 -6 54 10 -1
43 -18 73 -39 30 -21 95 -52 143 -69 84 -29 98 -31 238 -31 106 -1 150 2 153
11 3 6 18 15 34 18 46 10 43 23 -13 51 -29 15 -88 49 -130 77 -70 46 -80 57
-104 112 -53 123 -134 435 -133 515 0 36 2 40 9 24 11 -28 30 -40 30 -20 0 23
8 20 50 -18 43 -39 134 -76 186 -76 31 0 35 -3 29 -17 -19 -46 -24 -103 -13
-173 14 -98 19 -112 28 -80 5 14 9 18 10 10 1 -10 6 -6 13 9 9 19 9 25 0 28
-9 3 -8 14 2 41 29 80 87 193 104 204 11 6 17 17 14 23 -2 7 5 15 16 18 18 4
21 0 21 -26 l0 -30 25 23 26 24 52 -18 c175 -61 141 -156 -35 -98 l-54 18 9
-49 c9 -43 12 -48 31 -42 50 17 94 17 120 -1 52 -33 19 -61 -76 -63 l-47 -1
25 -67 c37 -100 68 -162 112 -221 53 -70 85 -93 135 -98 41 -4 41 -4 12 7 -31
12 -95 66 -95 81 0 5 -18 31 -40 59 -22 28 -40 58 -40 66 0 26 130 140 160
141 8 0 22 3 31 6 12 5 20 -3 32 -36 50 -130 147 -128 146 2 0 25 -6 63 -14
85 -8 22 -15 42 -15 44 0 13 134 -41 145 -58 3 -5 6 -53 7 -107 l1 -97 34 39
c30 35 33 45 33 104 0 147 -43 362 -86 425 -23 33 -17 37 49 31 34 -3 86 -5
114 -6 l53 0 -4 -117 -4 -118 19 55 c11 30 17 61 14 68 -2 7 0 10 5 7 6 -3 10
-1 10 5 0 22 46 80 64 80 15 0 17 -5 12 -27 -4 -16 -9 -80 -11 -143 -2 -80
-15 -170 -40 -295 -65 -323 -97 -405 -205 -519 -40 -42 -69 -76 -66 -76 37 0
179 138 270 263 31 42 61 77 66 77 5 0 26 30 45 68 l35 67 -6 -75 c-7 -93 -16
-135 -54 -255 -42 -131 -117 -222 -242 -293 -53 -30 -58 -31 -109 -22 -30 6
-59 17 -65 25 -6 8 -14 12 -17 8 -4 -3 -7 0 -7 7 0 10 -3 11 -11 3 -18 -18 9
-91 51 -136 21 -23 62 -54 92 -70 50 -26 56 -27 118 -16 35 5 80 20 100 31 31
18 28 13 -25 -43 -33 -35 -71 -80 -84 -99 l-24 -35 35 33 34 32 -9 -62 c-5
-35 -10 -108 -11 -163 -1 -55 -5 -118 -9 -140 -6 -38 -6 -38 3 -7 6 17 13 32
16 32 11 0 -7 -55 -24 -74 -39 -43 -221 -146 -260 -146 -15 -1 -40 -7 -57 -15
-29 -14 -27 -15 34 -9 35 2 110 14 165 24 56 11 113 22 129 25 29 5 33 -4 17
-36 -8 -15 -7 -19 4 -19 13 0 13 -5 3 -35 -10 -27 -30 -46 -102 -91 -49 -31
-173 -121 -275 -199 -197 -150 -245 -185 -254 -185 -3 0 -6 9 -6 20 0 10 -10
43 -21 72 -12 29 -21 69 -20 88 1 48 -22 122 -80 257 -27 64 -49 118 -49 121
0 2 18 2 39 -2 37 -6 48 -1 158 73 65 43 157 104 205 135 76 50 197 149 158
130 -8 -4 5 11 30 34 28 27 -30 -8 -160 -94 -113 -76 -237 -152 -276 -170
l-71 -34 -109 10 c-189 17 -392 62 -565 124 -137 49 -489 230 -513 263 -19 25
-19 26 -1 39 11 8 37 14 59 14 78 1 113 15 167 70 55 56 68 96 50 155 l-9 30
-1 -28 c-1 -30 -27 -93 -42 -103 -17 -10 -106 26 -188 75 -44 27 -91 51 -104
54 -20 6 -25 18 -41 94 -10 48 -31 121 -47 161 -16 41 -29 76 -29 79 0 2 18
-10 41 -29 60 -48 102 -78 113 -78 13 0 -195 169 -229 186 -20 10 -25 11 -14
2 25 -21 67 -117 89 -203 17 -71 26 -145 17 -145 -19 0 -73 39 -87 63 -10 16
-72 85 -138 151 -65 67 -136 145 -156 174 -21 29 -40 52 -43 52 -10 0 46 -79
131 -183 177 -216 277 -297 523 -423 l122 -63 -67 -22 c-94 -32 -203 -31 -294
3 -37 14 -65 22 -63 18 3 -5 0 -10 -7 -12 -16 -6 90 -58 117 -58 25 0 40 -24
50 -78 8 -47 27 -72 54 -72 10 0 24 -7 31 -15 7 -8 17 -15 22 -15 5 0 73 -32
151 -71 78 -39 196 -88 262 -111 66 -22 148 -53 183 -69 70 -32 76 -34 67 -19
-3 5 -3 10 1 10 27 0 155 -25 239 -47 90 -23 104 -30 137 -67 21 -23 38 -45
38 -50 0 -5 7 -14 15 -20 21 -16 39 -96 31 -139 -4 -21 -11 -35 -17 -32 -19
12 -8 -43 20 -101 34 -72 74 -185 67 -192 -3 -3 -11 0 -18 6 -28 22 -123 41
-213 43 -89 1 -97 0 -168 -35 -85 -42 -227 -152 -261 -202 -12 -19 -26 -31
-29 -27 -11 11 -8 65 3 58 6 -4 10 18 10 60 0 77 18 203 32 225 7 12 8 11 4
-4 -15 -45 -29 -203 -20 -222 6 -14 10 -3 12 44 2 34 7 62 11 62 5 0 14 44 21
98 18 145 71 300 127 369 l18 22 40 -20 c82 -41 100 -53 147 -100 l48 -48 0
48 c0 26 -7 71 -16 100 -8 29 -13 55 -10 58 3 3 22 -5 42 -18 36 -22 78 -33
69 -18 -11 17 -109 54 -215 81 -63 16 -122 32 -130 35 -8 4 -24 7 -35 8 -167
14 -278 40 -362 86 -61 33 -68 26 -18 -20 19 -17 35 -36 35 -41 0 -5 27 -28
60 -50 73 -49 103 -106 121 -226 14 -97 5 -142 -17 -79 -7 22 -11 29 -9 15 19
-96 18 -104 -23 -191 -63 -132 -235 -359 -323 -426 -23 -18 -44 -32 -45 -30
-2 1 1 32 6 67 20 137 3 298 -56 540 -14 58 -26 121 -26 140 0 28 -2 31 -8 15
-8 -18 -9 -18 -10 5 l-1 25 -10 -24 c-5 -14 -9 -41 -9 -60 0 -20 -3 -87 -6
-150 -7 -113 -7 -114 -25 -90 -10 13 -19 29 -19 35 0 12 -75 130 -101 159 -24
27 -113 209 -172 350 -35 86 -209 607 -203 612 2 2 29 -12 59 -32 94 -63 82
-34 -27 62 -57 50 -145 140 -195 198 -156 181 -231 314 -256 455 -8 46 -17 85
-20 88 -3 3 -5 -22 -5 -56 0 -71 36 -194 85 -292 24 -48 33 -80 33 -116 1 -64
24 -166 58 -253 42 -105 116 -243 152 -283 40 -44 29 -48 -49 -19 -59 23 -155
93 -163 118 -2 10 -10 37 -16 61 -14 53 -35 58 -25 5 6 -32 5 -35 -9 -24 -31
26 -124 147 -146 191 -36 72 -69 176 -91 294 -18 93 -20 128 -14 216 4 58 6
125 5 150 -16 276 -3 617 31 825 39 235 143 567 221 705 17 30 56 102 86 159
66 128 116 203 127 193 5 -4 5 -1 1 6 -10 17 75 128 188 247 47 50 86 95 86
100 1 6 29 28 63 50 34 22 79 57 101 77 22 20 62 49 90 64 28 15 64 38 79 51
l29 23 -109 0 c-127 0 -165 9 -230 54 -46 32 -48 35 -45 77 15 241 63 419 148
556 46 73 168 207 263 288 80 68 244 175 268 175 7 0 17 -8 22 -18z m141 -207
c10 -12 7 -24 -16 -62 -52 -90 -80 -123 -93 -110 -6 6 -11 17 -11 24 0 14 92
162 101 162 4 1 12 -6 19 -14z m-124 -206 c-16 -25 -86 -85 -86 -74 0 10 32
69 54 98 17 23 22 25 34 13 12 -12 12 -17 -2 -37z m1150 -635 c18 -14 18 -14
-6 -3 -31 14 -36 19 -24 19 6 0 19 -7 30 -16z m1489 -288 c17 -12 18 -18 7
-66 -7 -28 -12 -69 -12 -90 0 -47 -21 -95 -61 -140 -18 -19 -29 -29 -25 -22 4
6 4 12 1 12 -4 0 -26 -41 -49 -91 l-43 -92 -6 86 c-7 86 4 233 23 323 8 37 18
54 43 72 36 25 93 29 122 8z m-232 -351 c4 -36 15 -86 26 -110 20 -46 14 -63
-16 -46 -29 15 -133 128 -133 144 0 24 68 76 101 77 13 0 17 -14 22 -65z m64
-288 c11 2 73 -66 107 -119 19 -29 38 -176 24 -184 -5 -3 -6 -10 -3 -15 9 -13
-71 -10 -145 6 -80 18 -83 18 -74 4 15 -25 -34 12 -71 52 -36 41 -37 43 -31
98 8 65 73 179 134 232 l37 33 5 -55 c3 -34 9 -53 17 -52z m946 -17 c23 -1 53
-7 67 -15 14 -8 34 -14 46 -15 41 0 55 -22 61 -97 6 -82 -1 -127 -20 -117 -9
5 -9 4 -1 -5 8 -9 10 -54 7 -144 -9 -245 16 -413 99 -666 38 -116 154 -331
179 -331 5 0 45 -35 89 -78 46 -45 96 -84 118 -92 72 -26 257 -152 271 -184 2
-6 40 -46 85 -90 168 -168 212 -253 282 -543 28 -114 27 -143 -1 -98 -47 75
-125 160 -211 231 -171 140 -187 147 -76 30 96 -102 165 -184 207 -249 15 -24
16 -27 1 -21 -24 9 -20 1 35 -73 75 -100 202 -308 237 -388 114 -262 142 -369
148 -572 6 -184 -10 -459 -32 -558 -9 -38 -19 -90 -23 -115 -23 -147 -199
-303 -281 -250 -11 7 -5 10 25 11 30 2 33 3 13 6 l-27 4 26 55 c15 30 33 54
40 54 16 0 17 12 3 26 -7 7 -5 20 5 41 13 25 13 47 5 134 -6 57 -15 117 -20
133 -12 36 -12 39 0 31 5 -3 -28 68 -74 158 -94 184 -136 260 -143 254 -6 -7
-193 191 -193 205 0 4 -5 8 -10 8 -6 0 -44 28 -84 63 -40 34 -128 109 -197
167 -433 366 -609 560 -736 813 -24 49 -46 87 -49 85 -4 -5 58 -161 100 -250
l27 -56 -36 -60 c-19 -33 -35 -73 -35 -88 l0 -27 -24 22 c-27 26 -118 198
-160 306 -26 66 -76 277 -76 320 1 18 2 18 10 3 14 -23 65 -32 100 -18 17 7
38 9 47 5 30 -13 44 -14 40 -2 -2 6 7 27 20 46 25 37 29 71 11 89 -9 9 -6 18
14 39 38 41 98 139 98 161 0 11 -7 25 -15 32 -49 41 -256 362 -242 377 3 2 30
-2 60 -11 38 -11 64 -27 85 -51 17 -19 43 -37 57 -41 16 -4 24 -12 21 -19 -7
-18 26 -142 72 -270 97 -271 163 -394 300 -565 56 -69 162 -184 162 -176 0 4
-40 60 -88 124 -153 203 -211 309 -310 572 -83 218 -107 310 -86 317 7 2 11
-4 10 -14 -1 -14 7 -18 37 -20 36 -1 41 3 68 45 16 25 29 56 29 67 0 12 3 24
6 28 3 3 8 25 10 49 2 24 5 52 6 63 3 19 -2 20 -112 17 l-115 -3 -42 58 c-24
32 -55 90 -69 128 -15 39 -44 112 -66 162 -21 51 -38 108 -38 127 0 19 -4 38
-10 41 -18 11 -11 21 24 33 48 18 85 93 93 190 5 65 8 72 32 80 46 17 115 94
125 139 6 27 2 33 -56 78 -35 27 -64 49 -66 50 -1 1 4 18 12 37 8 19 12 45 9
57 -5 20 -3 21 21 11 15 -5 46 -10 69 -10z m-4803 -307 c-23 -43 -47 -83 -54
-88 -7 -6 -40 -33 -72 -61 -32 -28 -81 -70 -108 -93 -26 -23 -85 -60 -130 -82
l-81 -40 90 88 c50 48 137 128 194 177 56 49 124 108 149 132 25 24 48 44 50
44 2 0 -15 -35 -38 -77z m4045 -73 c22 -24 78 -43 103 -35 14 4 29 -6 57 -40
l37 -46 -37 -44 c-57 -71 -65 -76 -99 -73 -26 3 -39 15 -88 86 -31 46 -56 91
-55 100 0 10 -3 29 -6 45 -7 26 -6 27 31 27 26 0 45 -7 57 -20z m322 2 c6 -4
19 -26 28 -48 26 -66 106 -124 171 -124 l39 -1 -24 -19 c-24 -21 -69 -26 -99
-12 -9 5 -38 19 -63 31 -25 12 -82 54 -127 94 l-82 72 38 6 c55 9 106 10 119
1z m-456 -92 c-9 -23 -10 -23 -10 11 -1 20 2 39 7 43 11 12 14 -27 3 -54z m50
-85 c3 3 18 -17 32 -44 34 -62 42 -68 100 -76 55 -8 72 0 154 77 l51 49 71
-37 c68 -36 76 -43 72 -72 -2 -10 2 -11 15 -4 16 9 20 0 40 -77 51 -199 156
-429 217 -475 35 -26 111 -32 177 -12 66 20 60 20 60 -4 0 -11 -9 -28 -20 -37
-11 -10 -20 -26 -20 -37 0 -30 -49 -108 -63 -99 -36 22 -297 289 -344 353 -31
41 -61 80 -66 85 -13 13 39 -78 78 -139 l32 -48 -33 -37 c-18 -20 -46 -52 -62
-71 l-30 -34 -11 59 c-18 94 -49 209 -66 246 -11 26 -14 28 -10 9 3 -14 19
-110 37 -213 l31 -188 -25 -77 c-15 -42 -30 -105 -34 -139 -3 -35 -10 -63 -14
-63 -10 0 -85 55 -147 106 -89 76 -185 239 -221 379 -40 154 -61 437 -42 570
11 77 14 86 24 66 7 -12 14 -19 17 -16z m-4066 -21 c-26 -20 -75 -46 -75 -39
0 7 73 54 85 54 6 0 1 -7 -10 -15z m5156 -76 c12 -24 42 -74 66 -112 24 -37
42 -70 39 -73 -5 -6 -84 29 -108 48 -13 10 -19 36 -24 97 -4 45 -4 82 -1 82 4
0 16 -19 28 -42z m-5274 16 c-16 -9 -31 -13 -34 -10 -3 3 5 10 18 15 37 15 47
12 16 -5z m-279 -52 c2 -8 -8 -12 -30 -12 -31 1 -32 1 -13 15 21 17 37 15 43
-3z m2589 -132 c23 -17 67 -46 98 -65 55 -33 57 -35 34 -43 -60 -23 -65 -22
-123 13 l-57 34 4 -28 c3 -16 12 -40 22 -54 16 -24 15 -26 -4 -36 -11 -6 -22
-11 -25 -11 -3 0 -6 50 -6 110 0 61 4 110 8 110 4 0 26 -14 49 -30z m1637 -15
c9 -9 21 -34 27 -56 25 -81 -25 -293 -93 -397 -14 -21 -41 -62 -61 -93 -44
-65 -47 -82 -11 -48 42 38 119 162 149 238 28 71 39 81 96 81 23 0 28 -7 52
-82 29 -90 50 -193 67 -328 5 -47 20 -114 31 -150 17 -51 23 -101 27 -225 3
-108 8 -150 13 -130 5 17 28 51 51 76 l43 47 75 -2 c55 -1 95 -9 148 -30 68
-26 72 -29 72 -59 1 -49 35 -194 65 -272 15 -38 35 -97 46 -130 10 -33 30 -79
44 -103 l24 -43 -27 20 c-54 38 -191 181 -231 239 -22 33 -70 113 -105 178
-49 88 -67 114 -72 101 -4 -10 -12 -16 -19 -13 -10 3 -15 -15 -20 -72 -8 -78
-27 -130 -71 -189 -13 -17 -24 -42 -24 -55 0 -15 -3 -19 -8 -10 -19 29 -82
-122 -82 -197 0 -16 -79 -202 -123 -286 -20 -40 7 -3 39 53 36 61 43 59 20 -5
-36 -103 -38 -273 -5 -347 12 -24 11 -30 -4 -41 -9 -6 -13 -16 -9 -21 4 -5 -8
5 -26 21 -18 17 -45 56 -60 88 -24 51 -28 56 -39 41 -11 -15 -13 -15 -13 -2 0
23 76 277 99 331 12 27 19 53 16 58 -3 4 1 22 10 38 19 37 19 47 1 31 -40 -33
-101 -155 -161 -327 -11 -29 -22 -53 -26 -53 -4 0 -7 -8 -7 -17 0 -10 -7 -49
-16 -88 -34 -137 -53 -266 -55 -367 -1 -56 -4 -104 -6 -106 -11 -12 -158 154
-202 228 -93 156 -121 292 -88 440 18 81 18 84 2 74 -7 -5 -6 -2 3 6 12 12 63
160 55 160 -1 0 -19 -27 -40 -60 -39 -62 -51 -74 -40 -40 13 40 -14 18 -45
-37 -36 -63 -89 -133 -101 -133 -5 0 -1 19 7 42 18 52 10 86 -11 48 -8 -14
-14 -20 -15 -15 0 22 61 168 125 295 51 103 81 148 126 195 55 58 80 95 42 64
-15 -13 -15 -12 -4 9 22 42 -14 25 -65 -31 -27 -29 -71 -65 -98 -81 -49 -28
-50 -27 -13 29 13 20 0 11 -39 -26 -44 -42 -73 -61 -114 -74 -30 -9 -62 -19
-70 -21 -18 -6 -10 1 42 39 21 16 54 57 75 95 21 37 43 76 50 87 7 11 31 56
53 100 33 64 40 87 35 113 -3 19 1 56 9 86 37 127 55 383 35 514 l-13 87 -12
-100 c-12 -96 -33 -189 -50 -217 -34 -59 -116 -177 -132 -192 l-21 -18 15 54
c39 148 100 498 107 617 2 53 18 62 41 26 17 -26 17 -27 -3 -32 -33 -8 -25
-23 13 -23 27 0 41 -9 73 -43 22 -24 45 -41 52 -39 6 2 26 -7 44 -21 49 -37
116 -69 140 -65 17 2 12 8 -28 27 -92 45 -248 181 -287 251 -32 57 -54 165
-38 185 19 22 78 38 118 30 45 -8 152 -55 152 -66 0 -5 7 -6 15 -3 8 4 15 11
15 17 0 23 67 98 105 117 48 24 117 26 139 5z m-1414 -115 l35 -19 -73 4 c-85
4 -98 10 -51 24 47 13 49 13 89 -9z m1499 -42 c1 -5 -3 -8 -9 -8 -5 0 -10 12
-9 28 0 24 1 25 9 7 5 -11 9 -23 9 -27z m-1620 -2 c25 -7 47 -18 49 -24 4 -12
-36 -42 -58 -42 -15 0 -50 48 -50 69 0 14 5 14 59 -3z m-64 -42 l27 -36 -33
-34 c-18 -19 -39 -34 -45 -34 -13 0 -34 58 -34 94 0 19 26 45 46 46 7 0 24
-16 39 -36z m1713 -34 c-2 -9 -16 -16 -37 -17 -27 -2 -32 0 -27 13 3 9 6 22 6
29 0 20 33 24 48 6 7 -9 11 -22 10 -31z m-1150 0 c115 -61 163 -157 107 -210
-96 -90 -337 118 -245 210 26 26 89 26 138 0z m-1830 -305 c9 -22 22 -47 30
-57 15 -18 10 -23 -35 -33 l-33 -7 1 104 c1 86 3 97 11 68 5 -19 17 -53 26
-75z m-1004 -48 c-7 -142 -106 -410 -197 -532 -14 -18 -18 -16 -86 50 l-72 69
28 24 c15 13 39 28 53 33 43 16 184 253 242 407 17 46 23 53 28 37 4 -11 6
-51 4 -88z m-149 38 c-7 -30 -9 -55 -4 -55 7 0 -12 -48 -82 -207 -12 -29 -27
-53 -33 -53 -12 0 -156 93 -156 100 0 3 14 14 32 24 17 11 81 70 142 133 61
62 111 113 112 113 1 0 -4 -25 -11 -55z m4811 16 c18 15 14 19 64 -71 43 -75
97 -145 171 -220 l40 -40 -48 -62 c-26 -35 -70 -85 -97 -112 -35 -35 -43 -47
-28 -43 12 4 31 10 42 13 17 5 20 2 20 -21 0 -41 -58 -95 -103 -95 l-35 0 -57
145 c-32 80 -59 144 -62 142 -2 -3 14 -58 36 -123 22 -66 39 -120 37 -121 -1
-1 -17 12 -37 30 -19 18 -39 33 -44 34 -6 1 -36 13 -67 25 -39 16 -58 29 -60
42 -3 18 -5 18 -18 5 -8 -9 -40 -18 -70 -22 -30 -3 -64 -9 -74 -13 -16 -6 -18
-4 -14 14 4 12 0 26 -9 34 -44 36 -90 173 -103 310 -5 54 -12 110 -16 125 -4
18 11 2 43 -47 27 -41 71 -94 97 -118 50 -46 245 -147 247 -128 1 6 1 29 0 51
-3 51 38 160 87 234 26 40 38 50 40 38 3 -15 7 -16 18 -6z m-5030 -146 c-38
-36 -72 -63 -74 -60 -3 3 7 14 22 26 14 11 23 25 20 31 -4 7 -2 8 4 4 7 -4 12
-3 12 3 0 10 69 62 80 61 3 -1 -26 -30 -64 -65z m1430 18 c-3 -4 -1 -12 5 -20
9 -11 1 -13 -45 -13 -54 0 -57 1 -54 22 4 29 78 54 91 31 5 -8 6 -17 3 -20z
m-1039 -45 c-3 -8 -6 -5 -6 6 -1 11 2 17 5 13 3 -3 4 -12 1 -19z m843 -37 c0
-15 -15 -21 -38 -14 -32 8 -27 23 8 23 17 0 30 -4 30 -9z m403 -83 c50 -58 88
-118 82 -128 -28 -45 -175 78 -175 146 0 20 4 23 33 19 21 -3 42 -15 60 -37z
m-1589 -38 c17 -6 24 -14 20 -25 -9 -21 -19 -19 -38 10 -18 28 -18 29 18 15z
m377 -31 c-6 -24 -9 -28 -10 -12 -1 24 9 56 16 50 2 -3 0 -20 -6 -38z m-340
-16 c-8 -15 -10 -15 -11 -2 0 17 10 32 18 25 2 -3 -1 -13 -7 -23z m4504 -123
c18 -19 17 -20 -3 -20 -15 0 -22 6 -22 20 0 11 2 20 3 20 2 0 12 -9 22 -20z
m-2855 -106 c18 -36 38 -68 46 -71 22 -8 53 24 47 50 -4 18 -3 19 6 7 17 -23
51 -143 51 -179 0 -32 -1 -32 -37 -26 -21 4 -43 7 -50 8 -7 0 -10 3 -8 7 2 4
-21 28 -51 55 -31 26 -73 70 -94 97 l-39 49 22 25 c20 23 49 42 69 43 4 1 21
-29 38 -65z m-1385 12 c-27 -35 -44 -49 -29 -23 19 31 48 66 52 63 2 -3 -8
-21 -23 -40z m2145 34 c0 -5 -4 -10 -10 -10 -5 0 -10 5 -10 10 0 6 5 10 10 10
6 0 10 -4 10 -10z m4110 -47 c87 -36 178 -41 257 -14 34 12 65 21 68 21 15 0
-50 -99 -82 -124 -41 -33 -123 -56 -201 -56 -51 0 -53 1 -64 33 -6 17 -26 61
-45 96 -18 35 -33 65 -33 67 0 6 65 -9 100 -23z m-6204 -120 c-3 -4 -14 1 -24
10 -10 10 -29 17 -42 17 l-24 0 26 28 c14 15 28 36 33 47 6 16 10 7 22 -38 8
-32 12 -61 9 -64z m-356 -23 c-20 -13 -33 -13 -25 0 3 6 14 10 23 10 15 0 15
-2 2 -10z m946 -357 c69 -110 100 -172 114 -222 41 -146 164 -443 233 -559 22
-37 63 -116 91 -177 l52 -109 -111 -94 c-60 -51 -127 -109 -148 -129 -21 -19
-53 -44 -70 -56 -18 -12 -71 -55 -119 -95 -76 -64 -89 -79 -102 -124 -8 -28
-12 -57 -9 -64 3 -8 1 -20 -5 -27 -17 -20 -51 -251 -63 -429 -11 -154 -14
-168 -31 -168 -10 0 -53 -34 -94 -75 -41 -41 -69 -64 -63 -52 19 36 90 140
112 165 11 12 18 22 14 22 -12 0 -92 -92 -150 -174 -75 -103 -165 -263 -197
-349 -14 -37 -28 -67 -32 -67 -14 0 -45 41 -71 93 -26 51 -51 172 -43 199 3 7
7 40 10 73 7 73 43 219 63 260 63 126 231 347 403 530 26 28 69 74 95 103 28
30 54 51 62 48 8 -4 13 3 13 17 0 24 65 72 117 87 25 7 26 8 9 15 -12 5 -37
-1 -73 -19 l-55 -27 7 53 c24 187 143 585 221 740 38 76 40 86 20 113 -13 18
-17 14 -53 -63 -21 -45 -43 -82 -50 -82 -27 0 -127 155 -222 347 -74 148 -74
148 2 108 66 -36 147 -56 147 -37 0 6 -6 13 -12 16 -7 4 2 4 20 1 17 -2 32 -2
32 2 0 3 -17 24 -38 47 -43 47 -113 178 -166 312 -65 166 -46 144 140 -153z
m2574 130 c-57 -108 -137 -148 -203 -104 -37 24 -98 98 -74 88 9 -3 39 -9 67
-13 27 -4 48 -10 45 -14 -2 -3 24 7 58 23 34 17 70 31 80 32 10 1 23 7 29 13
20 20 19 14 -2 -25z m1860 -300 c82 -109 395 -402 645 -603 44 -35 114 -97
157 -138 l76 -74 -19 -21 c-11 -12 -26 -29 -34 -38 -8 -9 -15 -22 -15 -29 0
-7 -12 -42 -26 -78 -46 -115 -54 -325 -16 -421 l21 -54 -25 24 c-54 51 -106
130 -145 223 -64 153 -79 240 -86 474 -3 111 -8 200 -11 197 -10 -9 -31 -140
-32 -193 0 -51 -1 -52 -22 -41 -37 19 -231 150 -258 174 -14 13 -45 32 -70 43
-25 11 -70 42 -101 70 -75 68 -111 147 -117 257 -5 93 11 190 35 217 14 16 14
18 1 13 -12 -5 -14 -1 -11 19 3 14 8 26 12 26 3 0 22 -22 41 -47z m-5447 -366
c3 -9 4 -17 1 -17 -12 0 -34 72 -33 107 1 35 2 34 13 -18 7 -30 15 -63 19 -72z
m2324 -13 c-3 -3 -12 -4 -19 -1 -8 3 -5 6 6 6 11 1 17 -2 13 -5z m1926 -68
c-3 -15 3 -39 16 -59 23 -38 105 -117 120 -117 13 0 13 -129 0 -205 -18 -105
-69 -294 -96 -353 -33 -73 -85 -153 -134 -203 -22 -23 -39 -38 -39 -35 0 4 15
37 34 74 78 156 151 392 162 525 4 42 10 77 13 77 3 0 17 10 31 21 l25 21 -27
-16 c-15 -9 -30 -16 -33 -16 -3 0 -5 32 -5 71 0 44 -4 68 -10 64 -5 -3 -10
-24 -10 -46 0 -70 -47 -261 -95 -389 -84 -222 -148 -344 -225 -435 -78 -91
-281 -288 -395 -383 -59 -49 -22 -28 75 43 47 35 99 70 117 79 36 18 83 21 83
6 0 -5 -4 -10 -8 -10 -5 0 -18 -9 -30 -20 -59 -56 -268 -184 -422 -260 -159
-79 -522 -210 -580 -210 -36 0 -50 12 -51 44 l-1 31 -9 -32 c-5 -18 -16 -33
-24 -33 -23 0 -309 51 -314 56 -3 2 13 23 35 46 l39 42 -42 -33 c-24 -18 -45
-37 -49 -42 -7 -11 -88 -2 -119 14 -113 58 -230 160 -262 229 -37 79 -91 271
-117 415 l-26 143 106 102 c59 57 120 121 136 142 l28 39 0 -91 c0 -69 4 -94
16 -106 8 -9 18 -16 20 -16 12 0 72 35 104 60 56 44 183 130 192 130 4 0 8 -6
8 -14 0 -7 18 -50 41 -95 43 -87 125 -201 207 -289 l50 -53 -37 -15 c-52 -22
-275 -94 -290 -94 -7 0 -9 -4 -6 -10 9 -15 48 -12 186 11 172 28 367 97 484
169 35 22 37 22 50 4 11 -15 16 -16 26 -7 10 10 10 15 0 27 -10 12 0 23 66 67
65 44 114 79 220 161 13 10 234 -151 277 -202 21 -26 24 -35 15 -52 -14 -25
-4 -35 17 -17 65 54 174 382 174 524 0 67 5 69 81 28 37 -21 73 -48 78 -60 17
-37 39 -23 32 20 -1 5 8 6 19 2 26 -8 26 6 0 23 -17 10 -20 22 -19 75 1 53 3
57 9 27 6 -28 8 -22 9 35 1 76 60 407 71 400 4 -3 5 -16 3 -29z m-545 -16 c6
0 12 -9 12 -20 0 -80 58 -199 150 -304 57 -66 60 -72 60 -122 0 -89 -20 -204
-56 -328 -20 -65 -40 -129 -46 -141 -10 -22 -11 -22 -48 19 -21 22 -81 73
-134 111 -66 49 -94 75 -90 86 3 10 -5 20 -21 27 -14 6 -25 17 -25 23 0 8 -5
8 -15 -1 -13 -11 -24 -8 -65 14 -79 43 -159 67 -249 73 l-83 6 33 29 c18 16
38 33 44 36 6 4 18 19 28 34 9 15 40 42 69 61 29 19 106 69 171 111 65 42 115
80 112 86 -3 5 6 17 21 27 55 38 61 49 69 118 6 62 8 66 28 61 12 -3 28 -6 35
-6z m99 -97 c-6 -5 -37 73 -36 90 0 6 9 -10 20 -37 11 -27 18 -50 16 -53z
m-402 77 c-3 -5 -14 -10 -23 -10 -15 0 -15 2 -2 10 20 13 33 13 25 0z m-1144
-16 c54 -12 69 -19 65 -30 -3 -9 -1 -12 4 -9 6 3 10 1 10 -4 0 -6 -3 -11 -7
-12 -5 0 -15 -2 -23 -4 -8 -1 -35 -6 -60 -10 -45 -6 -46 -6 -58 27 -13 37 -15
58 -6 58 3 0 37 -7 75 -16z m1339 -69 c0 -8 -4 -15 -10 -15 -5 0 -7 7 -4 15 4
8 8 15 10 15 2 0 4 -7 4 -15z m246 -66 c14 -28 24 -53 22 -55 -2 -2 -16 21
-31 51 -15 30 -25 55 -22 55 3 0 16 -23 31 -51z m-1572 -13 c-18 -36 -34 -47
-34 -23 0 6 -3 22 -6 34 -5 18 -1 22 23 25 15 2 29 3 31 2 2 -1 -5 -18 -14
-38z m-2133 -2 c22 -25 22 -26 3 -16 -12 6 -24 18 -28 27 -8 21 -3 19 25 -11z
m84 -34 c3 -5 2 -10 -4 -10 -5 0 -13 5 -16 10 -3 6 -2 10 4 10 5 0 13 -4 16
-10z m3676 -42 c11 -21 11 -22 -4 -9 -10 7 -17 17 -17 22 0 15 9 10 21 -13z
m937 -24 c-4 -3 -12 5 -18 18 -12 22 -12 22 6 6 10 -10 15 -20 12 -24z m-3134
-263 c6 -39 5 -43 -9 -31 -9 7 -14 19 -11 26 3 7 0 14 -6 16 -13 5 -23 91 -13
115 8 19 24 -31 39 -126z m4686 84 c0 -6 -73 -55 -83 -55 -5 0 -7 10 -5 23 2
16 12 24 38 28 19 4 38 7 43 8 4 0 7 -1 7 -4z m166 -182 c86 -139 98 -173 92
-280 -4 -66 -1 -94 9 -110 8 -12 13 -34 11 -48 -3 -24 -9 -19 -69 57 -36 46
-84 111 -108 146 -23 34 -44 62 -47 62 -3 0 3 -12 14 -27 41 -60 31 -55 -41
22 -41 45 -93 94 -116 109 -24 17 -41 37 -41 48 0 38 29 76 67 88 21 7 58 28
83 47 l45 34 20 -25 c11 -14 48 -69 81 -123z m-3751 55 l58 -11 -28 -24 c-15
-13 -25 -27 -22 -30 3 -3 -6 -16 -21 -28 l-27 -24 29 -53 c16 -29 41 -70 55
-91 26 -39 27 -39 12 -103 -15 -65 -18 -70 -36 -56 -45 34 -98 105 -101 134
-5 57 -13 80 -33 102 -14 16 -91 178 -91 193 0 8 153 2 205 -9z m427 -32 c70
-14 188 -62 188 -77 0 -11 -162 -127 -282 -202 -94 -59 -224 -127 -242 -127
-11 0 -6 37 9 73 23 56 19 74 -39 157 l-55 78 32 6 c18 4 40 8 49 9 9 2 25 13
35 24 10 12 36 33 57 47 32 22 51 26 107 26 37 0 100 -6 141 -14z m-2306 -174
c-13 -13 -13 -10 -3 29 11 40 12 42 15 15 2 -16 -3 -35 -12 -44z m3174 -286
c0 -2 -8 -10 -17 -17 -16 -13 -17 -12 -4 4 13 16 21 21 21 13z m-20 -146 l35
-19 -59 -1 c-58 0 -59 0 -41 20 22 24 21 24 65 0z m2543 -7 c-7 -2 -19 -2 -25
0 -7 3 -2 5 12 5 14 0 19 -2 13 -5z m-2444 -92 c34 -10 95 -40 137 -66 l76
-48 -7 -121 c-14 -232 -52 -319 -219 -505 -92 -102 -181 -182 -236 -211 -20
-11 -21 -9 -15 22 8 39 -22 137 -63 208 -25 44 -208 240 -224 240 -4 0 -27 15
-51 33 -24 17 -82 55 -130 82 -47 28 -86 53 -87 57 -1 15 60 26 92 17 41 -11
38 -12 38 5 0 8 -8 16 -17 18 -13 3 -6 10 25 26 79 42 87 43 121 18 26 -19 48
-24 138 -29 141 -8 233 11 233 48 0 22 -54 37 -159 44 -70 4 -119 2 -150 -6
-72 -19 -71 -16 15 36 44 27 119 78 167 114 l87 64 84 -14 c47 -7 112 -22 145
-32z m-2048 -317 c22 -22 37 -43 34 -46 -3 -3 5 -12 18 -21 17 -11 34 -13 63
-8 38 7 40 6 36 -15 -3 -16 2 -24 17 -29 19 -6 15 -13 -42 -83 -34 -42 -74
-93 -88 -112 -84 -114 -295 -522 -307 -592 l-8 -43 -64 1 c-68 1 -150 32 -150
57 1 13 60 86 60 74 0 -4 -7 -20 -16 -35 -16 -26 -15 -25 12 4 86 92 115 129
129 164 28 69 76 156 132 241 107 159 109 162 138 194 70 77 76 86 30 45 -27
-24 -72 -71 -99 -105 -65 -79 -180 -256 -203 -311 -10 -24 -21 -44 -25 -44 -5
0 -8 -9 -8 -19 0 -29 -53 -68 -118 -87 -57 -17 -311 -116 -344 -135 -16 -8
-18 -4 -18 27 0 64 22 164 37 164 7 0 13 6 14 13 1 6 2 27 4 45 2 20 15 49 34
70 17 20 59 74 93 119 57 74 69 84 128 108 35 15 95 44 132 66 81 48 252 175
292 218 17 17 39 32 50 32 14 1 16 3 6 6 -14 5 -111 186 -110 207 0 5 23 -22
51 -60 28 -38 69 -87 90 -110z m1799 111 c22 -14 -26 -22 -141 -24 -84 -1
-100 2 -120 19 l-24 21 135 -3 c74 -2 142 -8 150 -13z m-2053 -151 c-3 -3 -12
-4 -19 -1 -8 3 -5 6 6 6 11 1 17 -2 13 -5z m1441 -75 c73 -85 82 -104 81 -162
l0 -42 -15 40 c-32 88 -55 125 -77 125 -21 0 -21 -1 2 -13 19 -9 32 -37 61
-124 32 -97 38 -131 44 -240 7 -138 -12 -369 -39 -476 -8 -32 -15 -61 -15 -63
0 -2 -6 -4 -14 -4 -8 0 -16 -7 -20 -15 -4 -11 -16 -4 -47 30 -30 32 -49 45
-69 45 l-27 0 -10 258 -10 257 1 -227 c1 -215 0 -226 -16 -211 -17 15 -18 15
-18 -4 0 -21 -30 -53 -67 -72 -13 -6 -23 -20 -23 -30 0 -27 -122 -54 -202 -45
l-60 7 6 61 c4 34 11 77 16 96 5 19 12 67 16 105 11 117 17 88 9 -45 -4 -69
-4 -122 0 -118 9 8 22 146 35 363 13 225 12 208 11 307 -1 73 -3 86 -16 82
-12 -5 -15 2 -15 32 0 39 0 39 40 39 22 0 40 -4 40 -9 0 -6 6 -3 13 6 6 8 53
29 102 46 50 17 115 42 145 56 30 14 60 24 65 22 6 -1 38 -36 73 -77z m-2391
49 c-3 -8 -6 -5 -6 6 -1 11 2 17 5 13 3 -3 4 -12 1 -19z m2529 -16 c-4 -3 -14
2 -24 12 -16 18 -16 18 6 6 13 -6 21 -14 18 -18z m-951 -32 l30 -8 -35 -1
c-19 0 -42 4 -50 9 -12 8 -11 10 5 9 11 -1 34 -5 50 -9z m228 -36 c9 -3 17
-12 17 -20 0 -8 5 -14 10 -14 6 0 10 7 10 15 0 9 9 15 25 15 24 0 25 -3 25
-54 l0 -55 -182 -149 c-101 -82 -216 -184 -257 -226 -40 -42 -75 -76 -77 -76
-1 0 10 26 25 58 16 31 57 120 91 197 34 77 63 141 65 143 1 1 14 -3 29 -9 50
-23 111 27 81 67 -13 18 -14 18 -8 -4 7 -30 -13 -52 -48 -52 -31 0 -44 13 -32
33 4 6 8 17 9 24 1 7 12 26 23 42 19 26 25 29 47 21 34 -13 39 -13 24 5 -7 8
-19 15 -26 15 -8 0 -14 4 -14 10 0 5 -7 7 -15 4 -8 -4 -15 -1 -15 6 0 7 8 10
19 7 10 -2 25 -1 32 4 13 9 101 4 142 -7z m-231 -23 l36 -16 -38 -63 c-21 -34
-75 -147 -120 -250 -45 -103 -99 -216 -118 -252 -20 -36 -48 -91 -62 -124 -14
-32 -29 -59 -34 -60 -11 -1 -42 150 -52 253 -5 47 -4 62 5 57 6 -4 11 -3 11 2
0 6 22 13 50 17 27 4 53 11 56 16 11 18 -29 21 -82 7 l-54 -15 0 44 c0 37 10
62 52 132 83 138 162 248 166 229 5 -28 -38 -306 -69 -442 -36 -162 -27 -186
22 -56 31 83 65 254 84 425 3 28 8 66 11 86 l5 36 47 -5 c26 -3 63 -12 84 -21z
m-652 -23 c-82 -72 -290 -147 -290 -104 0 9 8 16 19 16 30 0 179 57 236 89 66
38 78 38 35 -1z m1897 -311 c39 -31 83 -62 97 -69 31 -14 34 -44 5 -53 -24 -8
-30 -3 -177 140 -103 99 -162 171 -162 197 0 7 37 -26 83 -73 45 -47 114 -111
154 -142z m-928 96 c-3 -151 -13 -215 -35 -229 -19 -13 -23 -11 -54 32 -56 78
-115 102 -161 65 l-24 -20 42 6 c41 5 44 4 98 -52 30 -32 55 -59 55 -61 0 -7
-89 -62 -130 -79 -78 -33 -162 -96 -250 -186 -80 -82 -88 -87 -133 -90 l-48
-4 7 30 c13 65 63 142 174 266 36 40 55 67 43 60 -13 -6 -23 -9 -23 -5 0 8 23
27 162 134 188 145 262 200 271 200 4 0 6 -30 6 -67z m-1601 -135 c4 -54 0
-81 -18 -130 -20 -57 -77 -154 -85 -146 -7 7 44 279 61 326 23 64 35 50 42
-50z m1312 -298 c0 -5 -10 -15 -22 -21 -23 -12 -23 -12 -4 10 21 23 26 26 26
11z m-105 -126 c-33 -67 -95 -273 -95 -314 0 -10 -4 -21 -9 -24 -12 -8 -23 23
-16 45 12 36 -65 52 -110 23 -17 -11 -25 -12 -25 -5 0 7 -5 9 -11 5 -7 -4 -9
2 -7 14 1 12 39 57 82 102 73 74 82 80 110 75 27 -5 29 -4 11 6 -11 7 -22 14
-24 16 -3 2 24 33 59 68 35 35 65 63 66 62 2 -1 -12 -34 -31 -73z m-175 -73
c0 -11 -63 -90 -72 -90 -5 -1 -8 19 -8 43 0 43 1 45 33 49 17 2 35 5 40 5 4 1
7 -2 7 -7z"/>
<path d="M2690 7470 c12 -16 24 -30 26 -30 3 0 -4 14 -16 30 -12 17 -24 30
-26 30 -3 0 4 -13 16 -30z"/>
<path d="M3416 7125 c-11 -8 -15 -15 -9 -15 6 0 16 7 23 15 16 19 11 19 -14 0z"/>
<path d="M4608 7073 c7 -3 16 -2 19 1 4 3 -2 6 -13 5 -11 0 -14 -3 -6 -6z"/>
<path d="M4750 7054 c121 -17 253 -55 333 -95 103 -51 253 -147 296 -189 23
-22 41 -36 41 -32 0 17 -90 93 -165 140 -108 66 -206 115 -285 140 -76 25
-227 52 -279 51 -20 -1 7 -7 59 -15z"/>
<path d="M2440 6649 c0 -5 5 -7 10 -4 6 3 10 8 10 11 0 2 -4 4 -10 4 -5 0 -10
-5 -10 -11z"/>
<path d="M3650 6630 c0 -5 9 -10 19 -10 11 0 33 -12 50 -26 17 -14 31 -23 31
-20 0 8 86 -35 174 -88 117 -69 433 -399 659 -687 70 -91 86 -119 39 -70 -15
17 -55 50 -87 75 -33 24 -73 55 -90 68 -16 13 -32 23 -35 23 -3 1 -61 29 -130
63 -80 40 -142 63 -171 66 -25 2 -85 16 -134 30 -49 14 -101 26 -115 26 -25
-1 132 -60 226 -85 28 -8 76 -25 107 -39 67 -29 234 -138 297 -193 25 -22 70
-58 101 -81 31 -22 86 -74 122 -114 35 -40 77 -86 92 -103 21 -24 17 -11 -22
65 -103 199 -189 322 -377 540 -115 132 -186 204 -360 363 -152 138 -221 181
-323 197 -72 12 -73 12 -73 0z"/>
<path d="M2537 6469 c-141 -130 -238 -271 -375 -542 -95 -187 -141 -300 -163
-397 -49 -225 -60 -296 -64 -430 l-5 -145 19 135 c41 281 80 452 138 600 46
118 223 457 294 564 38 58 111 149 161 201 50 52 89 95 86 95 -2 0 -43 -36
-91 -81z"/>
<path d="M5222 6456 c47 -18 114 -49 148 -69 67 -40 79 -45 60 -22 -20 24
-116 74 -194 100 -107 36 -116 30 -14 -9z"/>
<path d="M3555 6190 c-4 -17 -5 -34 -2 -36 2 -3 7 10 11 27 8 42 0 50 -9 9z"/>
<path d="M5617 5702 c-10 -51 -28 -121 -41 -157 -30 -82 -16 -76 17 9 28 69
51 180 45 217 -2 13 -11 -18 -21 -69z"/>
<path d="M3747 5726 c-104 -43 -172 -116 -152 -163 8 -17 8 -17 13 2 7 35 51
72 124 105 l71 33 126 -6 c119 -5 124 -5 91 10 -41 17 -154 43 -190 43 -14 0
-51 -11 -83 -24z"/>
<path d="M3678 5113 c12 -2 32 -2 45 0 12 2 2 4 -23 4 -25 0 -35 -2 -22 -4z"/>
<path d="M4694 4495 c-6 -24 0 -44 10 -34 11 11 17 59 7 59 -6 0 -13 -11 -17
-25z"/>
<path d="M4658 4485 c-3 -6 -9 -28 -12 -50 l-6 -40 16 34 c14 31 16 78 2 56z"/>
<path d="M4603 4415 c0 -22 2 -30 4 -17 2 12 2 30 0 40 -3 9 -5 -1 -4 -23z"/>
<path d="M4456 4374 c-5 -14 -4 -15 9 -4 17 14 19 20 6 20 -5 0 -12 -7 -15
-16z"/>
<path d="M4278 4293 c7 -3 16 -2 19 1 4 3 -2 6 -13 5 -11 0 -14 -3 -6 -6z"/>
<path d="M2780 4033 c0 -12 38 -48 45 -41 3 2 -6 15 -20 28 -14 13 -25 19 -25
13z"/>
<path d="M2820 4032 c0 -16 44 -45 48 -32 3 7 12 4 24 -7 20 -18 21 -18 9 4
-13 26 -31 39 -31 23 0 -6 -10 -4 -25 6 -14 9 -25 12 -25 6z"/>
<path d="M4078 3978 c-75 -112 -167 -204 -244 -245 -37 -19 -57 -38 -74 -70
-32 -61 -75 -96 -101 -83 -11 6 -19 7 -19 1 0 -5 7 -12 16 -15 13 -5 14 -9 4
-21 -15 -19 -3 -37 20 -30 10 3 48 -6 85 -20 37 -14 79 -25 94 -24 22 1 20 3
-14 13 -29 9 -41 19 -43 35 -6 41 47 192 77 220 15 14 51 49 81 76 76 72 170
198 157 211 -2 2 -20 -19 -39 -48z m-253 -278 c-3 -5 -14 -10 -23 -10 -15 0
-15 2 -2 10 20 13 33 13 25 0z m-55 -60 c-6 -11 -13 -20 -16 -20 -2 0 0 9 6
20 6 11 13 20 16 20 2 0 0 -9 -6 -20z m-23 -116 c-3 -3 -12 -4 -19 -1 -8 3 -5
6 6 6 11 1 17 -2 13 -5z m43 -14 c0 -5 -2 -10 -4 -10 -3 0 -8 5 -11 10 -3 6
-1 10 4 10 6 0 11 -4 11 -10z"/>
<path d="M4137 3895 c-9 -160 -29 -282 -62 -365 -14 -35 -23 -65 -21 -67 11
-12 56 96 70 172 4 17 9 41 12 55 8 32 17 277 12 310 -2 14 -7 -33 -11 -105z"/>
<path d="M3357 3963 c-11 -19 -18 -73 -9 -73 5 0 13 16 17 36 6 35 2 54 -8 37z"/>
<path d="M3898 3463 c6 -2 18 -2 25 0 6 3 1 5 -13 5 -14 0 -19 -2 -12 -5z"/>
<path d="M5415 5330 c3 -5 -1 -10 -11 -10 -45 0 -124 -81 -139 -143 l-7 -25
-50 34 c-56 38 -112 58 -148 52 -23 -3 -25 -8 -25 -51 0 -26 -4 -47 -8 -47
-31 0 171 -217 207 -222 11 -2 20 -9 18 -16 -1 -8 2 -11 8 -7 6 4 17 1 25 -5
8 -7 21 -10 29 -7 21 8 81 125 101 197 9 36 26 82 36 102 23 46 25 116 4 124
-8 4 -15 12 -15 20 0 8 -7 14 -16 14 -8 0 -12 -4 -9 -10z m11 -97 c-16 -111
-88 -333 -108 -333 -20 0 -105 69 -155 127 -53 62 -103 131 -103 143 0 9 123
-16 153 -31 12 -6 29 -18 38 -25 14 -12 17 -11 28 13 25 57 74 124 100 138 47
25 54 20 47 -32z"/>
<path d="M5060 3780 c-6 -11 -8 -20 -6 -20 3 0 10 9 16 20 6 11 8 20 6 20 -3
0 -10 -9 -16 -20z"/>
<path d="M7430 2623 c0 -6 8 -17 18 -24 16 -13 16 -13 2 6 -8 11 -16 22 -17
24 -2 2 -3 0 -3 -6z"/>
<path d="M3301 2274 c-1 -20 48 -183 75 -247 57 -137 201 -319 289 -365 l40
-21 -60 0 c-113 -1 -152 17 -280 127 -48 41 -57 43 -20 3 74 -78 174 -156 218
-168 30 -8 35 -12 17 -12 l-24 -1 22 -22 c19 -20 36 -24 107 -27 157 -6 528
44 725 98 58 16 123 32 145 36 92 14 166 47 241 106 41 33 74 62 74 65 0 6 -3
4 -80 -48 -30 -20 -66 -39 -80 -43 -14 -4 16 20 65 53 50 33 101 73 115 88
l25 29 -25 -22 c-38 -32 -216 -128 -301 -162 -106 -43 -421 -86 -564 -78 -106
6 -207 33 -255 67 -16 11 -47 27 -69 35 -22 7 -75 38 -118 68 -97 68 -129 118
-259 402 -13 28 -23 45 -23 39z m354 -539 c31 -29 20 -26 -28 9 -15 11 -35 31
-44 45 l-16 26 29 -26 c16 -15 43 -39 59 -54z m95 -145 c11 -7 4 -10 -27 -10
-24 0 -43 5 -43 10 0 13 50 13 70 0z m189 6 c-11 -9 -160 -15 -154 -6 3 6 40
10 82 10 42 0 74 -2 72 -4z"/>
<path d="M4459 1523 l-24 -28 28 24 c25 23 32 31 24 31 -2 0 -14 -12 -28 -27z"/>
<path d="M7540 2456 c0 -2 8 -10 18 -17 15 -13 16 -12 3 4 -13 16 -21 21 -21
13z"/>
<path d="M7587 2389 c10 -17 24 -36 32 -42 8 -7 2 7 -14 31 -32 49 -45 57 -18
11z"/>
<path d="M4175 2353 c-40 -40 -39 -78 4 -117 19 -18 22 -18 46 -2 20 13 25 24
25 60 0 64 -40 95 -75 59z m43 -43 c-4 -30 -33 -49 -49 -33 -16 16 -3 61 19
66 24 5 34 -6 30 -33z"/>
<path d="M5080 1709 c0 -5 19 -9 42 -9 49 0 47 5 -4 13 -21 3 -38 2 -38 -4z"/>
<path d="M4267 1290 c3 -11 9 -20 15 -20 5 0 4 9 -2 20 -6 11 -12 20 -14 20
-2 0 -2 -9 1 -20z"/>
<path d="M4480 8371 c5 -11 15 -23 21 -27 6 -3 3 5 -6 20 -20 30 -30 35 -15 7z"/>
<path d="M7700 8366 c0 -2 8 -10 18 -17 15 -13 16 -12 3 4 -13 16 -21 21 -21
13z"/>
<path d="M3500 8341 c5 -11 15 -23 21 -27 6 -3 3 5 -6 20 -20 30 -30 35 -15 7z"/>
<path d="M2825 8306 c10 -14 19 -26 22 -26 7 0 -17 39 -28 46 -6 3 -3 -5 6
-20z"/>
<path d="M4510 8327 c0 -2 11 -18 25 -37 14 -19 23 -41 20 -50 -5 -12 -4 -12
6 -3 10 10 6 21 -16 53 -25 36 -35 47 -35 37z"/>
<path d="M7740 8311 c5 -11 15 -23 21 -27 6 -3 3 5 -6 20 -20 30 -30 35 -15 7z"/>
<path d="M4255 8286 c10 -14 19 -26 22 -26 7 0 -17 39 -28 46 -6 3 -3 -5 6
-20z"/>
<path d="M3820 8240 c22 -33 43 -60 46 -60 2 0 -14 27 -36 60 -22 33 -43 60
-46 60 -2 0 14 -27 36 -60z"/>
<path d="M2870 8240 c12 -16 24 -30 26 -30 3 0 -4 14 -16 30 -12 17 -24 30
-26 30 -3 0 4 -13 16 -30z"/>
<path d="M3600 8198 c28 -43 53 -78 55 -78 7 0 -53 92 -80 125 -14 17 -3 -5
25 -47z"/>
<path d="M4991 8253 c-1 -6 -4 -20 -7 -30 -5 -17 -5 -17 6 0 6 10 9 23 6 30
-3 9 -5 9 -5 0z"/>
<path d="M4310 8205 c17 -25 33 -45 36 -45 3 0 -9 20 -26 45 -17 25 -33 45
-36 45 -3 0 9 -20 26 -45z"/>
<path d="M8060 8210 c12 -16 24 -30 26 -30 3 0 -4 14 -16 30 -12 17 -24 30
-26 30 -3 0 4 -13 16 -30z"/>
<path d="M4497 8205 c-20 -14 -37 -28 -37 -31 0 -2 18 8 40 22 35 23 47 34 37
34 -1 0 -19 -11 -40 -25z"/>
<path d="M7850 8150 c12 -16 24 -30 26 -30 3 0 -4 14 -16 30 -12 17 -24 30
-26 30 -3 0 4 -13 16 -30z"/>
<path d="M8100 8151 c5 -11 15 -23 21 -27 6 -3 3 5 -6 20 -20 30 -30 35 -15 7z"/>
<path d="M4843 8099 c-24 -17 -43 -32 -43 -35 0 -3 20 9 45 26 25 17 45 33 45
35 0 7 -2 6 -47 -26z"/>
<path d="M3950 8050 c22 -33 43 -60 46 -60 2 0 -14 27 -36 60 -22 33 -43 60
-46 60 -2 0 14 -27 36 -60z"/>
<path d="M7890 8091 c5 -11 15 -23 21 -27 6 -3 3 5 -6 20 -20 30 -30 35 -15 7z"/>
<path d="M2520 8070 c12 -16 24 -30 26 -30 3 0 -4 14 -16 30 -12 17 -24 30
-26 30 -3 0 4 -13 16 -30z"/>
<path d="M7595 8044 l-30 -26 35 23 c45 29 45 29 34 29 -5 0 -22 -12 -39 -26z"/>
<path d="M3700 8046 c0 -2 8 -10 18 -17 15 -13 16 -12 3 4 -13 16 -21 21 -21
13z"/>
<path d="M7632 8025 c0 -16 2 -22 5 -12 2 9 2 23 0 30 -3 6 -5 -1 -5 -18z"/>
<path d="M8210 7990 c22 -33 43 -60 46 -60 2 0 -14 27 -36 60 -22 33 -43 60
-46 60 -2 0 14 -27 36 -60z"/>
<path d="M7106 8031 c-3 -4 6 -6 19 -3 14 2 25 6 25 8 0 8 -39 4 -44 -5z"/>
<path d="M7230 8029 c8 -8 21 -21 29 -29 12 -12 11 -10 0 9 -9 14 -22 27 -30
29 -11 3 -11 2 1 -9z"/>
<path d="M7402 8020 c0 -14 2 -19 5 -12 2 6 2 18 0 25 -3 6 -5 1 -5 -13z"/>
<path d="M2560 8011 c5 -11 15 -23 21 -27 6 -3 3 5 -6 20 -20 30 -30 35 -15 7z"/>
<path d="M3747 7979 c10 -17 24 -36 32 -42 8 -7 2 7 -14 31 -32 49 -45 57 -18
11z"/>
<path d="M4646 7965 c-27 -18 -54 -39 -60 -46 -6 -6 17 7 52 30 34 23 62 44
62 46 0 7 -1 7 -54 -30z"/>
<path d="M6976 7945 c-27 -18 -54 -39 -60 -46 -6 -6 17 7 52 30 34 23 62 44
62 46 0 7 -1 7 -54 -30z"/>
<path d="M7310 7920 c22 -33 43 -60 46 -60 2 0 -14 27 -36 60 -22 33 -43 60
-46 60 -2 0 14 -27 36 -60z"/>
<path d="M7460 7955 c-19 -14 -30 -25 -25 -25 6 0 24 11 40 25 39 31 30 31
-15 0z"/>
<path d="M7622 7950 c0 -14 2 -19 5 -12 2 6 2 18 0 25 -3 6 -5 1 -5 -13z"/>
<path d="M2370 7940 c6 -11 13 -20 16 -20 2 0 0 9 -6 20 -6 11 -13 20 -16 20
-2 0 0 -9 6 -20z"/>
<path d="M8020 7900 c22 -33 43 -60 46 -60 2 0 -14 27 -36 60 -22 33 -43 60
-46 60 -2 0 14 -27 36 -60z"/>
<path d="M2410 7883 c0 -6 8 -17 18 -24 16 -13 16 -13 2 6 -8 11 -16 22 -17
24 -2 2 -3 0 -3 -6z"/>
<path d="M4090 7845 c17 -25 33 -45 36 -45 3 0 -9 20 -26 45 -17 25 -33 45
-36 45 -3 0 9 -20 26 -45z"/>
<path d="M4441 7825 c-35 -24 -69 -49 -75 -56 -6 -6 24 12 67 40 42 28 77 54
77 56 0 7 0 7 -69 -40z"/>
<path d="M6786 7815 c-27 -18 -54 -39 -60 -46 -6 -6 17 7 52 30 34 23 62 44
62 46 0 7 -1 7 -54 -30z"/>
<path d="M7369 7835 c6 -11 20 -31 31 -45 15 -17 18 -19 11 -5 -6 11 -20 31
-31 45 -15 17 -18 19 -11 5z"/>
<path d="M3890 7771 c23 -34 43 -61 46 -61 6 0 1 8 -39 67 -15 23 -32 45 -37
48 -6 3 8 -21 30 -54z"/>
<path d="M7610 7821 c0 -6 4 -13 10 -16 6 -3 7 1 4 9 -7 18 -14 21 -14 7z"/>
<path d="M3415 7786 c10 -14 19 -26 22 -26 7 0 -17 39 -28 46 -6 3 -3 -5 6
-20z"/>
<path d="M8150 7710 c22 -33 43 -60 46 -60 2 0 -14 27 -36 60 -22 33 -43 60
-46 60 -2 0 14 -27 36 -60z"/>
<path d="M4150 7755 c0 -2 18 -14 40 -25 22 -11 40 -18 40 -15 0 2 -18 14 -40
25 -22 11 -40 18 -40 15z"/>
<path d="M7680 7715 c17 -25 33 -45 36 -45 3 0 -9 20 -26 45 -17 25 -33 45
-36 45 -3 0 9 -20 26 -45z"/>
<path d="M3440 7746 c0 -2 8 -10 18 -17 15 -13 16 -12 3 4 -13 16 -21 21 -21
13z"/>
<path d="M3245 7693 c15 -24 30 -43 32 -43 7 0 -31 61 -46 73 -8 7 -2 -7 14
-30z"/>
<path d="M7440 7726 c0 -2 8 -10 18 -17 15 -13 16 -12 3 4 -13 16 -21 21 -21
13z"/>
<path d="M6603 7689 c-24 -17 -43 -32 -43 -35 0 -3 20 9 45 26 25 17 45 33 45
35 0 7 -2 6 -47 -26z"/>
<path d="M7480 7671 c5 -11 15 -23 21 -27 6 -3 3 5 -6 20 -20 30 -30 35 -15 7z"/>
<path d="M3499 7665 c6 -11 20 -31 31 -45 15 -17 18 -19 11 -5 -6 11 -20 31
-31 45 -15 17 -18 19 -11 5z"/>
<path d="M3280 7636 c0 -2 8 -10 18 -17 15 -13 16 -12 3 4 -13 16 -21 21 -21
13z"/>
<path d="M3990 7634 c0 -5 14 -29 30 -54 16 -25 30 -40 30 -35 0 6 -14 30 -30
54 -17 24 -30 40 -30 35z"/>
<path d="M7755 7606 c10 -14 19 -26 22 -26 7 0 -17 39 -28 46 -6 3 -3 -5 6
-20z"/>
<path d="M7075 7583 c15 -24 30 -43 32 -43 7 0 -31 61 -46 73 -8 7 -2 -7 14
-30z"/>
<path d="M3570 7560 c12 -16 24 -30 26 -30 3 0 -4 14 -16 30 -12 17 -24 30
-26 30 -3 0 4 -13 16 -30z"/>
<path d="M6436 7571 c-10 -11 -16 -28 -13 -38 4 -17 5 -17 6 1 0 11 8 28 18
38 9 10 14 18 11 18 -3 0 -13 -9 -22 -19z"/>
<path d="M6930 7569 c-22 -18 -22 -19 -3 -10 12 6 25 16 28 21 9 15 3 12 -25
-11z"/>
<path d="M2150 7576 c0 -2 8 -10 18 -17 15 -13 16 -12 3 4 -13 16 -21 21 -21
13z"/>
<path d="M7791 7553 c7 -12 15 -20 18 -17 3 2 -3 12 -13 22 -17 16 -18 16 -5
-5z"/>
<path d="M6870 7529 c-22 -18 -22 -19 -3 -10 12 6 25 16 28 21 9 15 3 12 -25
-11z"/>
<path d="M7610 7480 c22 -33 43 -60 46 -60 2 0 -14 27 -36 60 -22 33 -43 60
-46 60 -2 0 14 -27 36 -60z"/>
<path d="M2940 7455 c28 -41 53 -75 56 -75 2 0 -18 34 -46 75 -28 41 -53 75
-56 75 -2 0 18 -34 46 -75z"/>
<path d="M7110 7526 c0 -2 8 -10 18 -17 15 -13 16 -12 3 4 -13 16 -21 21 -21
13z"/>
<path d="M3946 7485 c-27 -18 -54 -39 -60 -46 -6 -6 17 7 52 30 34 23 62 44
62 46 0 7 -1 7 -54 -30z"/>
<path d="M3410 7450 c22 -33 43 -60 46 -60 2 0 -14 27 -36 60 -22 33 -43 60
-46 60 -2 0 14 -27 36 -60z"/>
<path d="M6422 7480 c0 -19 2 -27 5 -17 2 9 2 25 0 35 -3 9 -5 1 -5 -18z"/>
<path d="M6856 7485 c4 -8 11 -15 16 -15 6 0 5 6 -2 15 -7 8 -14 15 -16 15 -2
0 -1 -7 2 -15z"/>
<path d="M7839 7485 c6 -11 20 -31 31 -45 15 -17 18 -19 11 -5 -6 11 -20 31
-31 45 -15 17 -18 19 -11 5z"/>
<path d="M3649 7445 c6 -11 20 -31 31 -45 15 -17 18 -19 11 -5 -6 11 -20 31
-31 45 -15 17 -18 19 -11 5z"/>
<path d="M6890 7440 c6 -11 13 -20 16 -20 2 0 0 9 -6 20 -6 11 -13 20 -16 20
-2 0 0 -9 6 -20z"/>
<path d="M6465 7383 c15 -24 30 -43 32 -43 7 0 -31 61 -46 73 -8 7 -2 -7 14
-30z"/>
<path d="M7200 7400 c6 -11 13 -20 16 -20 2 0 0 9 -6 20 -6 11 -13 20 -16 20
-2 0 0 -9 6 -20z"/>
<path d="M6910 7406 c0 -2 8 -10 18 -17 15 -13 16 -12 3 4 -13 16 -21 21 -21
13z"/>
<path d="M7910 7376 c0 -2 8 -10 18 -17 15 -13 16 -12 3 4 -13 16 -21 21 -21
13z"/>
<path d="M6949 7352 c5 -10 18 -25 27 -33 11 -9 9 -2 -6 19 -26 35 -36 42 -21
14z"/>
<path d="M7250 7325 c17 -25 33 -45 36 -45 3 0 -9 20 -26 45 -17 25 -33 45
-36 45 -3 0 9 -20 26 -45z"/>
<path d="M2311 7343 c7 -12 15 -20 18 -17 3 2 -3 12 -13 22 -17 16 -18 16 -5
-5z"/>
<path d="M6163 7353 c15 -2 37 -2 50 0 12 2 0 4 -28 4 -27 0 -38 -2 -22 -4z"/>
<path d="M6063 7319 c-59 -41 -54 -48 5 -8 58 40 57 39 46 39 -5 -1 -28 -14
-51 -31z"/>
<path d="M6257 7320 c9 -17 28 -43 41 -58 13 -15 6 -1 -14 31 -38 59 -58 79
-27 27z"/>
<path d="M7730 7305 c17 -25 33 -45 36 -45 3 0 -9 20 -26 45 -17 25 -33 45
-36 45 -3 0 9 -20 26 -45z"/>
<path d="M7950 7321 c5 -11 15 -23 21 -27 6 -3 3 5 -6 20 -20 30 -30 35 -15 7z"/>
<path d="M6520 7300 c12 -16 24 -30 26 -30 3 0 -4 14 -16 30 -12 17 -24 30
-26 30 -3 0 4 -13 16 -30z"/>
<path d="M3051 7293 c7 -12 15 -20 18 -17 3 2 -3 12 -13 22 -17 16 -18 16 -5
-5z"/>
<path d="M2356 7277 c3 -10 9 -15 12 -12 3 3 0 11 -7 18 -10 9 -11 8 -5 -6z"/>
<path d="M7990 7261 c5 -11 15 -23 21 -27 6 -3 3 5 -6 20 -20 30 -30 35 -15 7z"/>
<path d="M7020 7246 c0 -2 8 -10 18 -17 15 -13 16 -12 3 4 -13 16 -21 21 -21
13z"/>
<path d="M7779 7235 c6 -11 20 -31 31 -45 15 -17 18 -19 11 -5 -6 11 -20 31
-31 45 -15 17 -18 19 -11 5z"/>
<path d="M5896 7205 c-27 -18 -54 -39 -60 -46 -6 -6 17 7 52 30 34 23 62 44
62 46 0 7 -1 7 -54 -30z"/>
<path d="M7059 7195 c6 -11 20 -31 31 -45 15 -17 18 -19 11 -5 -6 11 -20 31
-31 45 -15 17 -18 19 -11 5z"/>
<path d="M7330 7206 c0 -2 8 -10 18 -17 15 -13 16 -12 3 4 -13 16 -21 21 -21
13z"/>
<path d="M6605 7176 c10 -14 19 -26 22 -26 7 0 -17 39 -28 46 -6 3 -3 -5 6
-20z"/>
<path d="M8060 7156 c0 -2 8 -10 18 -17 15 -13 16 -12 3 4 -13 16 -21 21 -21
13z"/>
<path d="M7370 7146 c0 -2 8 -10 18 -17 15 -13 16 -12 3 4 -13 16 -21 21 -21
13z"/>
<path d="M6395 7116 c10 -14 19 -26 22 -26 7 0 -17 39 -28 46 -6 3 -3 -5 6
-20z"/>
<path d="M6630 7136 c0 -2 8 -10 18 -17 15 -13 16 -12 3 4 -13 16 -21 21 -21
13z"/>
<path d="M7850 7126 c0 -2 8 -10 18 -17 15 -13 16 -12 3 4 -13 16 -21 21 -21
13z"/>
<path d="M7135 7083 c15 -24 30 -43 32 -43 7 0 -31 61 -46 73 -8 7 -2 -7 14
-30z"/>
<path d="M8107 7089 c10 -17 24 -36 32 -42 8 -7 2 7 -14 31 -32 49 -45 57 -18
11z"/>
<path d="M7890 7071 c5 -11 15 -23 21 -27 6 -3 3 5 -6 20 -20 30 -30 35 -15 7z"/>
<path d="M6440 7050 c12 -16 24 -30 26 -30 3 0 -4 14 -16 30 -12 17 -24 30
-26 30 -3 0 4 -13 16 -30z"/>
<path d="M7430 7061 c5 -11 15 -23 21 -27 6 -3 3 5 -6 20 -20 30 -30 35 -15 7z"/>
<path d="M6689 7055 c6 -11 20 -31 31 -45 15 -17 18 -19 11 -5 -6 11 -20 31
-31 45 -15 17 -18 19 -11 5z"/>
<path d="M2245 7026 c10 -14 19 -26 22 -26 7 0 -17 39 -28 46 -6 3 -3 -5 6
-20z"/>
<path d="M6480 6991 c5 -11 15 -23 21 -27 6 -3 3 5 -6 20 -20 30 -30 35 -15 7z"/>
<path d="M2321 6915 c28 -41 53 -75 56 -75 5 0 -2 11 -55 88 -24 34 -46 62
-48 62 -3 0 18 -34 47 -75z"/>
<path d="M7209 6975 c6 -11 20 -31 31 -45 15 -17 18 -19 11 -5 -6 11 -20 31
-31 45 -15 17 -18 19 -11 5z"/>
<path d="M7480 6986 c0 -2 8 -10 18 -17 15 -13 16 -12 3 4 -13 16 -21 21 -21
13z"/>
<path d="M6760 6950 c12 -16 24 -30 26 -30 3 0 -4 14 -16 30 -12 17 -24 30
-26 30 -3 0 4 -13 16 -30z"/>
<path d="M8222 6921 c18 -27 35 -48 36 -46 5 4 -57 95 -64 95 -2 0 10 -22 28
-49z"/>
<path d="M7527 6919 c10 -17 24 -36 32 -42 8 -7 2 7 -14 31 -32 49 -45 57 -18
11z"/>
<path d="M6090 6880 c22 -33 43 -60 46 -60 2 0 -14 27 -36 60 -22 33 -43 60
-46 60 -2 0 14 -27 36 -60z"/>
<path d="M8000 6910 c12 -16 24 -30 26 -30 3 0 -4 14 -16 30 -12 17 -24 30
-26 30 -3 0 4 -13 16 -30z"/>
<path d="M6800 6891 c5 -11 15 -23 21 -27 6 -3 3 5 -6 20 -20 30 -30 35 -15 7z"/>
<path d="M6550 6896 c0 -10 59 -96 66 -96 3 0 -9 21 -27 48 -39 57 -39 57 -39
48z"/>
<path d="M7280 6870 c12 -16 24 -30 26 -30 3 0 -4 14 -16 30 -12 17 -24 30
-26 30 -3 0 4 -13 16 -30z"/>
<path d="M8039 6855 c6 -11 20 -31 31 -45 15 -17 18 -19 11 -5 -6 11 -20 31
-31 45 -15 17 -18 19 -11 5z"/>
<path d="M7579 6842 c5 -10 18 -25 27 -33 11 -9 9 -2 -6 19 -26 35 -36 42 -21
14z"/>
<path d="M7320 6811 c5 -11 15 -23 21 -27 6 -3 3 5 -6 20 -20 30 -30 35 -15 7z"/>
<path d="M6865 6796 c10 -14 19 -26 22 -26 7 0 -17 39 -28 46 -6 3 -3 -5 6
-20z"/>
<path d="M6627 6780 c16 -29 66 -100 70 -100 7 0 -26 52 -54 85 -14 17 -21 23
-16 15z"/>
<path d="M7357 6758 c23 -38 95 -138 99 -138 3 0 -18 34 -47 75 -28 41 -53 75
-56 75 -2 0 -1 -6 4 -12z"/>
<path d="M6220 6690 c22 -33 43 -60 46 -60 2 0 -14 27 -36 60 -22 33 -43 60
-46 60 -2 0 14 -27 36 -60z"/>
<path d="M8110 6746 c0 -2 8 -10 18 -17 15 -13 16 -12 3 4 -13 16 -21 21 -21
13z"/>
<path d="M7650 6736 c0 -2 8 -10 18 -17 15 -13 16 -12 3 4 -13 16 -21 21 -21
13z"/>
<path d="M6910 6726 c0 -2 8 -10 18 -17 15 -13 16 -12 3 4 -13 16 -21 21 -21
13z"/>
<path d="M1999 6702 c5 -10 18 -25 27 -33 11 -9 9 -2 -6 19 -26 35 -36 42 -21
14z"/>
<path d="M8157 6680 c9 -17 28 -43 41 -58 13 -15 6 -1 -14 31 -38 59 -58 79
-27 27z"/>
<path d="M7689 6682 c6 -12 16 -24 22 -28 8 -4 8 -1 0 14 -6 12 -16 24 -22 28
-8 4 -8 1 0 -14z"/>
<path d="M6950 6671 c5 -11 15 -23 21 -27 6 -3 3 5 -6 20 -20 30 -30 35 -15 7z"/>
<path d="M6700 6666 c0 -2 8 -10 18 -17 15 -13 16 -12 3 4 -13 16 -21 21 -21
13z"/>
<path d="M2050 6626 c0 -2 8 -10 18 -17 15 -13 16 -12 3 4 -13 16 -21 21 -21
13z"/>
<path d="M6740 6611 c5 -11 15 -23 21 -27 6 -3 3 5 -6 20 -20 30 -30 35 -15 7z"/>
<path d="M7740 6611 c5 -11 15 -23 21 -27 6 -3 3 5 -6 20 -20 30 -30 35 -15 7z"/>
<path d="M2102 6555 c11 -20 23 -34 25 -31 5 5 -35 66 -42 66 -3 0 5 -16 17
-35z"/>
<path d="M7470 6586 c0 -2 8 -10 18 -17 15 -13 16 -12 3 4 -13 16 -21 21 -21
13z"/>
<path d="M7779 6555 c6 -11 20 -31 31 -45 15 -17 18 -19 11 -5 -6 11 -20 31
-31 45 -15 17 -18 19 -11 5z"/>
<path d="M7060 6510 c12 -16 24 -30 26 -30 3 0 -4 14 -16 30 -12 17 -24 30
-26 30 -3 0 4 -13 16 -30z"/>
<path d="M7545 6483 c15 -24 30 -43 32 -43 7 0 -31 61 -46 73 -8 7 -2 -7 14
-30z"/>
<path d="M6825 6486 c10 -14 19 -26 22 -26 7 0 -17 39 -28 46 -6 3 -3 -5 6
-20z"/>
<path d="M1910 6473 c0 -6 8 -17 18 -24 16 -13 16 -13 2 6 -8 11 -16 22 -17
24 -2 2 -3 0 -3 -6z"/>
<path d="M7848 6450 c9 -16 21 -30 25 -30 5 0 -1 14 -13 30 -27 39 -34 39 -12
0z"/>
<path d="M7099 6455 c6 -11 20 -31 31 -45 15 -17 18 -19 11 -5 -6 11 -20 31
-31 45 -15 17 -18 19 -11 5z"/>
<path d="M6850 6446 c0 -2 8 -10 18 -17 15 -13 16 -12 3 4 -13 16 -21 21 -21
13z"/>
<path d="M1949 6415 c6 -11 20 -31 31 -45 15 -17 18 -19 11 -5 -6 11 -20 31
-31 45 -15 17 -18 19 -11 5z"/>
<path d="M7580 6426 c0 -2 8 -10 18 -17 15 -13 16 -12 3 4 -13 16 -21 21 -21
13z"/>
<path d="M7889 6394 c7 -15 7 -24 -2 -33 -9 -10 -8 -11 6 -6 21 9 21 16 1 41
-15 18 -15 18 -5 -2z"/>
<path d="M6909 6365 c6 -11 20 -31 31 -45 15 -17 18 -19 11 -5 -6 11 -20 31
-31 45 -15 17 -18 19 -11 5z"/>
<path d="M7630 6356 c0 -2 8 -10 18 -17 15 -13 16 -12 3 4 -13 16 -21 21 -21
13z"/>
<path d="M7170 6346 c0 -2 8 -10 18 -17 15 -13 16 -12 3 4 -13 16 -21 21 -21
13z"/>
<path d="M7835 6324 l-30 -26 33 22 c17 12 32 23 32 26 0 7 -4 5 -35 -22z"/>
<path d="M7674 6292 c22 -42 44 -58 59 -43 9 10 8 11 -5 6 -13 -5 -23 2 -39
29 -25 43 -36 48 -15 8z"/>
<path d="M7217 6279 c10 -17 24 -36 32 -42 8 -7 2 7 -14 31 -32 49 -45 57 -18
11z"/>
<path d="M7000 6230 c22 -33 43 -60 46 -60 2 0 -14 27 -36 60 -22 33 -43 60
-46 60 -2 0 14 -27 36 -60z"/>
<path d="M8156 6205 c-43 -29 -83 -59 -90 -66 -6 -6 31 16 82 50 50 34 92 64
92 66 0 7 1 8 -84 -50z"/>
<path d="M7295 6166 c10 -14 19 -26 22 -26 7 0 -17 39 -28 46 -6 3 -3 -5 6
-20z"/>
<path d="M7085 6106 c10 -14 19 -26 22 -26 7 0 -17 39 -28 46 -6 3 -3 -5 6
-20z"/>
<path d="M7320 6126 c0 -2 8 -10 18 -17 15 -13 16 -12 3 4 -13 16 -21 21 -21
13z"/>
<path d="M7367 6059 c10 -17 24 -36 32 -42 8 -7 2 7 -14 31 -32 49 -45 57 -18
11z"/>
<path d="M7960 6069 c-22 -18 -22 -19 -3 -10 12 6 25 16 28 21 9 15 3 12 -25
-11z"/>
<path d="M7110 6066 c0 -2 8 -10 18 -17 15 -13 16 -12 3 4 -13 16 -21 21 -21
13z"/>
<path d="M7909 6033 c-13 -16 -12 -17 4 -4 9 7 17 15 17 17 0 8 -8 3 -21 -13z"/>
<path d="M7170 5981 c5 -11 15 -23 21 -27 6 -3 3 5 -6 20 -20 30 -30 35 -15 7z"/>
<path d="M7824 5978 c-41 -30 -52 -42 -29 -30 26 15 72 51 64 52 -4 0 -19 -10
-35 -22z"/>
<path d="M7469 5912 c11 -16 28 -35 38 -43 9 -8 2 5 -17 29 -38 48 -52 57 -21
14z"/>
<path d="M7716 5905 c-27 -18 -54 -39 -60 -46 -6 -6 17 7 52 30 34 23 62 44
62 46 0 7 -1 7 -54 -30z"/>
<path d="M7235 5886 c10 -14 19 -26 22 -26 7 0 -17 39 -28 46 -6 3 -3 -5 6
-20z"/>
<path d="M1570 5859 c-22 -18 -22 -19 -3 -10 12 6 25 16 28 21 9 15 3 12 -25
-11z"/>
<path d="M7280 5820 c12 -16 24 -30 26 -30 3 0 -4 14 -16 30 -12 17 -24 30
-26 30 -3 0 4 -13 16 -30z"/>
<path d="M7605 5840 l-30 -8 27 -1 c15 0 30 4 33 9 3 6 5 9 3 9 -2 -1 -16 -5
-33 -9z"/>
<path d="M1519 5823 c-13 -16 -12 -17 4 -4 9 7 17 15 17 17 0 8 -8 3 -21 -13z"/>
<path d="M1434 5768 c-41 -30 -52 -42 -29 -30 26 15 72 51 64 52 -4 0 -19 -10
-35 -22z"/>
<path d="M7320 5761 c5 -11 15 -23 21 -27 6 -3 3 5 -6 20 -20 30 -30 35 -15 7z"/>
<path d="M1195 5740 c10 -11 20 -20 23 -20 3 0 -3 9 -13 20 -10 11 -20 20 -23
20 -3 0 3 -9 13 -20z"/>
<path d="M6886 5718 c16 -27 15 -29 -7 -49 l-24 -20 28 17 c32 20 33 25 6 55
l-20 24 17 -27z"/>
<path d="M7322 5668 c-12 -28 -20 -53 -18 -55 2 -2 13 19 25 48 12 28 21 53
19 55 -3 2 -14 -20 -26 -48z"/>
<path d="M7260 5589 c-22 -18 -22 -19 -3 -10 12 6 25 16 28 21 9 15 3 12 -25
-11z"/>
<path d="M7209 5553 c-13 -16 -12 -17 4 -4 9 7 17 15 17 17 0 8 -8 3 -21 -13z"/>
<path d="M7147 5515 c-20 -14 -37 -28 -37 -31 0 -2 18 8 40 22 35 23 47 34 37
34 -1 0 -19 -11 -40 -25z"/>
<path d="M929 5423 c-13 -16 -12 -17 4 -4 16 13 21 21 13 21 -2 0 -10 -8 -17
-17z"/>
<path d="M8140 4585 c-19 -14 -30 -25 -25 -25 6 0 24 11 40 25 39 31 30 31
-15 0z"/>
<path d="M7975 4469 c-4 -6 -5 -12 -2 -15 2 -3 7 2 10 11 7 17 1 20 -8 4z"/>
<path d="M8212 3986 c24 -35 45 -63 46 -61 4 4 -77 125 -83 125 -3 0 14 -29
37 -64z"/>
<path d="M8010 3915 c17 -25 33 -45 36 -45 3 0 -9 20 -26 45 -17 25 -33 45
-36 45 -3 0 9 -20 26 -45z"/>
<path d="M8170 3680 c22 -33 43 -60 46 -60 2 0 -14 27 -36 60 -22 33 -43 60
-46 60 -2 0 14 -27 36 -60z"/>
<path d="M759 3689 l-24 -20 28 17 c15 9 27 18 27 20 0 8 -8 4 -31 -17z"/>
<path d="M800 3704 c0 -5 12 -22 26 -39 l26 -30 -23 35 c-29 45 -29 45 -29 34z"/>
<path d="M689 3643 c-13 -16 -12 -17 4 -4 9 7 17 15 17 17 0 8 -8 3 -21 -13z"/>
<path d="M610 3589 c-22 -18 -22 -19 -3 -10 12 6 25 16 28 21 9 15 3 12 -25
-11z"/>
<path d="M930 3510 c22 -33 43 -60 46 -60 2 0 -14 27 -36 60 -22 33 -43 60
-46 60 -2 0 14 -27 36 -60z"/>
<path d="M531 3504 c0 -11 3 -14 6 -6 3 7 2 16 -1 19 -3 4 -6 -2 -5 -13z"/>
<path d="M523 3375 c0 -44 2 -61 4 -37 2 23 2 59 0 80 -2 20 -4 1 -4 -43z"/>
<path d="M1070 3305 c28 -41 53 -75 56 -75 2 0 -18 34 -46 75 -28 41 -53 75
-56 75 -2 0 18 -34 46 -75z"/>
<path d="M756 3355 c4 -8 8 -15 10 -15 2 0 4 7 4 15 0 8 -4 15 -10 15 -5 0 -7
-7 -4 -15z"/>
<path d="M300 3333 c25 -3 54 -12 65 -21 20 -17 20 -17 1 6 -15 17 -28 22 -65
20 l-46 -1 45 -4z"/>
<path d="M689 3323 c-13 -16 -12 -17 4 -4 9 7 17 15 17 17 0 8 -8 3 -21 -13z"/>
<path d="M204 3314 c-18 -14 -18 -15 4 -4 12 6 22 13 22 15 0 8 -5 6 -26 -11z"/>
<path d="M639 3289 l-24 -20 28 17 c15 9 27 18 27 20 0 8 -8 4 -31 -17z"/>
<path d="M126 3265 c-27 -18 -54 -39 -60 -46 -6 -6 17 7 52 30 34 23 62 44 62
46 0 7 -1 7 -54 -30z"/>
<path d="M420 3226 c0 -2 8 -10 18 -17 15 -13 16 -12 3 4 -13 16 -21 21 -21
13z"/>
<path d="M467 3159 c10 -17 24 -36 32 -42 8 -7 2 7 -14 31 -32 49 -45 57 -18
11z"/>
<path d="M730 3141 c0 -17 4 -32 8 -35 4 -2 6 11 4 30 -5 42 -12 45 -12 5z"/>
<path d="M770 3060 c12 -16 24 -30 26 -30 3 0 -4 14 -16 30 -12 17 -24 30 -26
30 -3 0 4 -13 16 -30z"/>
<path d="M565 3016 c10 -14 19 -26 22 -26 7 0 -17 39 -28 46 -6 3 -3 -5 6 -20z"/>
<path d="M610 2950 c12 -16 24 -30 26 -30 3 0 -4 14 -16 30 -12 17 -24 30 -26
30 -3 0 4 -13 16 -30z"/>
<path d="M134 2928 c-18 -23 -18 -23 1 -6 17 16 19 16 32 0 13 -15 13 -14 3 6
-6 12 -12 22 -14 22 -2 0 -11 -10 -22 -22z"/>
<path d="M875 2906 c10 -14 19 -26 22 -26 7 0 -17 39 -28 46 -6 3 -3 -5 6 -20z"/>
<path d="M60 2880 c-8 -5 -12 -12 -9 -15 4 -3 12 1 19 10 14 17 11 19 -10 5z"/>
<path d="M200 2871 c5 -11 15 -23 21 -27 6 -3 3 5 -6 20 -20 30 -30 35 -15 7z"/>
<path d="M915 2850 c10 -11 20 -20 23 -20 3 0 -3 9 -13 20 -10 11 -20 20 -23
20 -3 0 3 -9 13 -20z"/>
<path d="M730 2776 c17 -25 35 -48 41 -51 5 -4 -5 14 -21 39 -17 25 -35 48
-41 51 -5 4 5 -14 21 -39z"/>
<path d="M1419 2795 c6 -11 20 -31 31 -45 15 -17 18 -19 11 -5 -6 11 -20 31
-31 45 -15 17 -18 19 -11 5z"/>
<path d="M265 2776 c10 -14 19 -26 22 -26 7 0 -17 39 -28 46 -6 3 -3 -5 6 -20z"/>
<path d="M985 2746 c10 -14 19 -26 22 -26 7 0 -17 39 -28 46 -6 3 -3 -5 6 -20z"/>
<path d="M290 2736 c0 -2 8 -10 18 -17 15 -13 16 -12 3 4 -13 16 -21 21 -21
13z"/>
<path d="M1490 2690 c12 -16 24 -30 26 -30 3 0 -4 14 -16 30 -12 17 -24 30
-26 30 -3 0 4 -13 16 -30z"/>
<path d="M1010 2706 c0 -2 8 -10 18 -17 15 -13 16 -12 3 4 -13 16 -21 21 -21
13z"/>
<path d="M347 2658 c23 -38 95 -138 99 -138 3 0 -18 34 -47 75 -28 41 -53 75
-56 75 -2 0 -1 -6 4 -12z"/>
<path d="M1530 2631 c5 -11 15 -23 21 -27 6 -3 3 5 -6 20 -20 30 -30 35 -15 7z"/>
<path d="M849 2605 c6 -11 20 -31 31 -45 15 -17 18 -19 11 -5 -6 11 -20 31
-31 45 -15 17 -18 19 -11 5z"/>
<path d="M1567 2580 c16 -29 66 -100 70 -100 7 0 -26 52 -54 85 -14 17 -21 23
-16 15z"/>
<path d="M1120 2546 c0 -2 8 -10 18 -17 15 -13 16 -12 3 4 -13 16 -21 21 -21
13z"/>
<path d="M1167 2479 c10 -17 24 -36 32 -42 8 -7 2 7 -14 31 -32 49 -45 57 -18
11z"/>
<path d="M1640 2466 c0 -2 8 -10 18 -17 15 -13 16 -12 3 4 -13 16 -21 21 -21
13z"/>
<path d="M1000 2382 c22 -34 43 -62 45 -62 7 0 -57 99 -72 112 -8 6 4 -16 27
-50z"/>
<path d="M260 2370 c22 -33 43 -60 46 -60 2 0 -14 27 -36 60 -22 33 -43 60
-46 60 -2 0 14 -27 36 -60z"/>
<path d="M1680 2411 c5 -11 15 -23 21 -27 6 -3 3 5 -6 20 -20 30 -30 35 -15 7z"/>
<path d="M570 2330 c22 -33 43 -60 46 -60 2 0 -14 27 -36 60 -22 33 -43 60
-46 60 -2 0 14 -27 36 -60z"/>
<path d="M1725 2346 c10 -14 19 -26 22 -26 7 0 -17 39 -28 46 -6 3 -3 -5 6
-20z"/>
<path d="M1290 2300 c22 -33 43 -60 46 -60 2 0 -14 27 -36 60 -22 33 -43 60
-46 60 -2 0 14 -27 36 -60z"/>
<path d="M1780 2265 c17 -25 33 -45 36 -45 3 0 -9 20 -26 45 -17 25 -33 45
-36 45 -3 0 9 -20 26 -45z"/>
<path d="M1070 2276 c0 -2 8 -10 18 -17 15 -13 16 -12 3 4 -13 16 -21 21 -21
13z"/>
<path d="M365 2216 c10 -14 19 -26 22 -26 7 0 -17 39 -28 46 -6 3 -3 -5 6 -20z"/>
<path d="M661 2200 c29 -45 29 -45 29 -34 0 5 -12 23 -26 39 l-26 30 23 -35z"/>
<path d="M1130 2190 c12 -16 24 -30 26 -30 3 0 -4 14 -16 30 -12 17 -24 30
-26 30 -3 0 4 -13 16 -30z"/>
<path d="M410 2150 c12 -16 24 -30 26 -30 3 0 -4 14 -16 30 -12 17 -24 30 -26
30 -3 0 4 -13 16 -30z"/>
<path d="M1395 2146 c10 -14 19 -26 22 -26 7 0 -17 39 -28 46 -6 3 -3 -5 6
-20z"/>
<path d="M700 2143 c0 -6 8 -17 18 -24 16 -13 16 -13 2 6 -8 11 -16 22 -17 24
-2 2 -3 0 -3 -6z"/>
<path d="M1169 2135 c6 -11 20 -31 31 -45 15 -17 18 -19 11 -5 -6 11 -20 31
-31 45 -15 17 -18 19 -11 5z"/>
<path d="M1875 2126 c10 -14 19 -26 22 -26 7 0 -17 39 -28 46 -6 3 -3 -5 6
-20z"/>
<path d="M1440 2080 c12 -16 24 -30 26 -30 3 0 -4 14 -16 30 -12 17 -24 30
-26 30 -3 0 4 -13 16 -30z"/>
<path d="M1220 2056 c0 -2 8 -10 18 -17 15 -13 16 -12 3 4 -13 16 -21 21 -21
13z"/>
<path d="M505 2013 c15 -24 30 -43 32 -43 7 0 -31 61 -46 73 -8 7 -2 -7 14
-30z"/>
<path d="M7060 2016 c0 -3 26 -23 58 -45 111 -76 281 -257 365 -388 23 -37 66
-135 73 -168 1 -5 9 -39 18 -75 18 -74 20 -104 7 -95 -5 3 -2 -20 6 -51 15
-52 15 -65 0 -167 -20 -133 -30 -154 -184 -396 -67 -104 30 -29 103 80 25 38
47 69 50 69 5 0 -11 -42 -32 -83 -16 -30 -16 -31 0 -18 55 46 119 252 131 421
11 149 -38 374 -107 490 -49 83 -183 234 -259 291 -70 54 -229 147 -229 135z"/>
<path d="M810 1986 c0 -10 59 -96 66 -96 3 0 -9 21 -27 48 -39 57 -39 57 -39
48z"/>
<path d="M1280 1971 c5 -11 15 -23 21 -27 6 -3 3 5 -6 20 -20 30 -30 35 -15 7z"/>
<path d="M7050 1982 c0 -4 27 -45 61 -92 121 -170 188 -354 196 -542 3 -65 4
-118 1 -118 -2 0 -24 38 -47 85 -39 77 -158 232 -225 294 l-25 24 11 -31 c7
-17 14 -29 16 -27 8 8 156 -219 202 -310 25 -49 53 -91 62 -93 25 -5 41 60 42
168 1 187 -96 437 -231 598 -41 48 -63 64 -63 44z"/>
<path d="M540 1956 c0 -2 8 -10 18 -17 15 -13 16 -12 3 4 -13 16 -21 21 -21
13z"/>
<path d="M80 1946 c0 -2 8 -10 18 -17 15 -13 16 -12 3 4 -13 16 -21 21 -21 13z"/>
<path d="M1562 1901 c18 -27 35 -48 36 -46 5 4 -57 95 -64 95 -2 0 10 -22 28
-49z"/>
<path d="M7778 1923 c7 -3 16 -2 19 1 4 3 -2 6 -13 5 -11 0 -14 -3 -6 -6z"/>
<path d="M1330 1896 c0 -2 8 -10 18 -17 15 -13 16 -12 3 4 -13 16 -21 21 -21
13z"/>
<path d="M625 1836 c10 -14 19 -26 22 -26 7 0 -17 39 -28 46 -6 3 -3 -5 6 -20z"/>
<path d="M2753 1853 c-32 -12 4 -59 64 -83 32 -12 70 -11 208 6 l50 6 -65 25
c-110 42 -219 62 -257 46z m142 -29 c73 -18 93 -34 45 -34 -46 0 -149 25 -163
39 -17 17 47 14 118 -5z"/>
<path d="M150 1846 c0 -2 8 -10 18 -17 15 -13 16 -12 3 4 -13 16 -21 21 -21
13z"/>
<path d="M925 1813 c15 -24 30 -43 32 -43 7 0 -31 61 -46 73 -8 7 -2 -7 14
-30z"/>
<path d="M3052 1830 c0 -14 2 -19 5 -12 2 6 2 18 0 25 -3 6 -5 1 -5 -13z"/>
<path d="M1370 1836 c0 -2 8 -10 18 -17 15 -13 16 -12 3 4 -13 16 -21 21 -21
13z"/>
<path d="M197 1780 c9 -17 28 -43 41 -58 13 -15 6 -1 -14 31 -38 59 -58 79
-27 27z"/>
<path d="M680 1755 c17 -25 33 -45 36 -45 3 0 -9 20 -26 45 -17 25 -33 45 -36
45 -3 0 9 -20 26 -45z"/>
<path d="M1430 1751 c5 -11 15 -23 21 -27 6 -3 3 5 -6 20 -20 30 -30 35 -15 7z"/>
<path d="M990 1716 l30 -45 -45 -31 c-25 -17 -45 -33 -45 -36 0 -4 72 42 98
62 5 3 -57 94 -64 94 -3 0 9 -20 26 -44z"/>
<path d="M3086 1721 c-3 -5 -23 -18 -43 -29 -21 -11 -62 -33 -91 -48 -65 -35
-146 -108 -140 -126 7 -19 33 -16 30 4 -3 21 57 69 171 137 48 29 87 57 87 62
0 11 -7 12 -14 0z"/>
<path d="M1441 1653 c-10 -26 -10 -27 4 -9 8 11 15 23 15 28 0 15 -7 8 -19
-19z"/>
<path d="M796 1585 c29 -44 40 -53 50 -44 8 6 14 14 14 17 0 3 -5 1 -12 -6 -9
-9 -19 0 -45 38 -18 28 -36 50 -38 50 -3 0 11 -25 31 -55z"/>
<path d="M340 1570 c22 -33 43 -60 46 -60 2 0 -14 27 -36 60 -22 33 -43 60
-46 60 -2 0 14 -27 36 -60z"/>
<path d="M1322 1536 c-46 -33 -53 -43 -14 -20 19 10 38 25 44 32 15 17 8 14
-30 -12z"/>
<path d="M157 1469 c10 -17 24 -36 32 -42 8 -7 2 7 -14 31 -32 49 -45 57 -18
11z"/>
<path d="M1240 1479 c-22 -18 -22 -19 -3 -10 12 6 25 16 28 21 9 15 3 12 -25
-11z"/>
<path d="M1169 1429 l-24 -20 28 17 c15 9 27 18 27 20 0 8 -8 4 -31 -17z"/>
<path d="M470 1380 c22 -33 43 -60 46 -60 2 0 -14 27 -36 60 -22 33 -43 60
-46 60 -2 0 14 -27 36 -60z"/>
<path d="M1080 1369 c-22 -18 -22 -19 -3 -10 12 6 25 16 28 21 9 15 3 12 -25
-11z"/>
<path d="M280 1290 c22 -33 43 -60 46 -60 2 0 -14 27 -36 60 -22 33 -43 60
-46 60 -2 0 14 -27 36 -60z"/>
<path d="M1015 1324 l-30 -26 33 22 c17 12 32 23 32 26 0 7 -4 5 -35 -22z"/>
<path d="M925 1264 c-18 -16 -22 -22 -9 -15 18 9 53 42 43 41 -2 -1 -17 -12
-34 -26z"/>
<path d="M2070 1245 c0 -8 2 -15 4 -15 2 0 6 7 10 15 3 8 1 15 -4 15 -6 0 -10
-7 -10 -15z"/>
<path d="M586 1212 c16 -25 44 -52 66 -63 21 -11 38 -17 38 -14 0 2 -18 14
-40 25 -22 11 -40 24 -40 28 0 4 -12 21 -26 37 -24 29 -24 29 2 -13z"/>
<path d="M855 1214 l-30 -26 33 22 c17 12 32 23 32 26 0 7 -4 5 -35 -22z"/>
<path d="M779 1163 c-13 -16 -12 -17 4 -4 9 7 17 15 17 17 0 8 -8 3 -21 -13z"/>
<path d="M6732 1139 c-28 -32 -43 -69 -88 -226 -30 -103 -72 -255 -93 -338
-26 -100 -40 -142 -43 -125 -3 15 -6 6 -7 -23 -1 -45 -27 -181 -57 -297 -19
-73 -18 -90 5 -90 11 0 22 6 24 13 3 6 6 -3 6 -20 1 -28 5 -33 26 -33 l25 0
-6 93 c-3 50 -7 97 -9 102 -3 12 20 121 57 263 l24 93 48 -76 c58 -91 215
-266 318 -353 107 -91 162 -122 221 -122 l48 0 -53 46 c-234 205 -355 352
-456 556 -42 84 -51 110 -43 125 5 10 17 59 26 108 9 50 27 146 40 215 13 68
23 125 22 125 -1 1 -17 -15 -35 -36z m-59 -362 c-4 -30 -9 -45 -15 -39 -6 6
-5 25 3 51 15 52 19 49 12 -12z"/>
<path d="M410 1100 c22 -33 43 -60 46 -60 2 0 -14 27 -36 60 -22 33 -43 60
-46 60 -2 0 14 -27 36 -60z"/>
<path d="M5676 947 c-201 -270 -344 -505 -479 -787 -38 -80 -71 -148 -74 -153
-2 -4 18 -7 46 -7 49 0 50 1 69 42 11 24 68 94 127 157 132 141 183 208 197
258 5 21 45 128 88 238 43 110 81 216 85 235 4 19 19 47 33 63 27 28 24 34 -9
17 -25 -14 -24 1 2 34 12 15 19 29 17 31 -2 3 -48 -55 -102 -128z m-16 -116
c-5 -11 -14 -23 -20 -26 -5 -3 -6 -13 -3 -22 4 -11 3 -14 -5 -9 -7 4 -12 2
-12 -5 0 -7 -3 -10 -6 -7 -7 7 12 45 34 71 20 23 25 22 12 -2z m-181 -438
c-63 -82 -75 -89 -37 -22 12 22 28 39 36 39 12 0 12 -3 1 -17z m-157 -185 c-7
-7 -12 -8 -12 -2 0 14 12 26 19 19 2 -3 -1 -11 -7 -17z"/>
<path d="M431 943 c-10 -26 -10 -27 4 -9 8 11 15 23 15 28 0 15 -7 8 -19 -19z"/>
<path d="M395 900 c-3 -6 1 -7 9 -4 18 7 21 14 7 14 -6 0 -13 -4 -16 -10z"/>
<path d="M329 853 c-13 -17 -13 -17 6 -3 11 8 22 16 24 17 2 2 0 3 -6 3 -6 0
-17 -8 -24 -17z"/>
<path d="M279 819 l-24 -20 28 17 c15 9 27 18 27 20 0 8 -8 4 -31 -17z"/>
<path d="M143 729 c-59 -41 -54 -48 5 -8 58 40 57 39 46 39 -5 -1 -28 -14 -51
-31z"/>
<path d="M5112 408 c-99 -167 -197 -327 -216 -355 -23 -35 -30 -53 -21 -53 12
0 44 36 70 82 6 9 51 86 101 170 51 84 102 171 114 193 92 165 118 199 106
138 -6 -35 -17 -234 -11 -213 14 47 34 255 26 263 -6 6 -4 21 5 39 9 17 14 32
11 34 -2 2 -85 -132 -185 -298z"/>
<path d="M8104 398 c-38 -29 -49 -38 -43 -38 3 0 20 11 39 25 19 14 40 23 48
20 7 -2 10 0 7 5 -9 15 -19 12 -51 -12z"/>
<path d="M8180 361 c0 -6 4 -13 10 -16 6 -3 7 1 4 9 -7 18 -14 21 -14 7z"/>
<path d="M7973 309 c-24 -17 -43 -32 -43 -35 0 -3 20 9 45 26 25 17 45 33 45
35 0 7 -2 6 -47 -26z"/>
<path d="M8221 296 c12 -20 25 -39 30 -42 5 -3 0 11 -12 30 -12 20 -25 39 -30
42 -5 3 0 -11 12 -30z"/>
<path d="M7881 234 c0 -11 3 -14 6 -6 3 7 2 16 -1 19 -3 4 -6 -2 -5 -13z"/>
<path d="M4310 219 c-75 -30 -149 -83 -211 -154 -44 -50 -49 -61 -34 -64 18
-3 26 4 76 68 15 19 33 26 82 31 45 5 52 8 27 10 -19 1 -42 2 -50 1 -8 -1 -2
10 15 24 20 17 37 24 52 20 17 -4 21 -1 17 9 -9 23 76 50 130 42 25 -4 48 -11
50 -15 3 -4 -17 -20 -45 -36 -27 -16 -49 -33 -49 -37 0 -9 36 10 58 30 33 30
53 34 74 15 12 -10 29 -31 38 -47 16 -25 17 -32 4 -63 -8 -19 -13 -40 -11 -46
2 -7 7 3 11 20 11 46 23 49 37 8 14 -38 39 -48 39 -15 0 11 5 20 11 20 6 0 13
-9 16 -20 3 -11 9 -20 13 -20 16 0 -4 43 -22 48 -10 2 -26 23 -37 46 -10 23
-32 54 -50 69 -39 32 -32 36 12 5 l32 -22 -24 27 c-55 61 -170 81 -261 46z"/>
<path d="M6576 168 c15 -24 79 -115 100 -141 15 -19 31 -27 53 -27 36 0 38 6
11 40 l-19 25 6 -24 6 -24 -31 23 c-18 13 -53 50 -78 82 -44 54 -65 75 -48 46z"/>
<path d="M6110 111 c0 -5 -3 -16 -6 -25 -3 -9 -1 -16 5 -16 6 0 11 7 11 15 0
9 7 18 15 21 16 7 109 -34 176 -77 56 -35 70 -37 39 -4 -12 13 -27 22 -31 19
-5 -3 -9 0 -9 7 0 7 -3 10 -6 6 -3 -3 -14 3 -24 13 -32 32 -170 65 -170 41z"/>
<path d="M4317 92 c6 -4 13 -28 16 -52 l4 -45 1 53 c2 44 -1 52 -15 52 -12 0
-14 -3 -6 -8z"/>
<path d="M8043 34 l-28 -25 33 22 c17 13 32 24 32 26 0 8 -11 1 -37 -23z"/>
<path d="M8098 27 c-3 -19 -2 -25 4 -19 6 6 8 18 6 28 -3 14 -5 12 -10 -9z"/>
</g>
</svg>
